<?xml version="1.0" encoding="UTF-8" standalone="no"?>
<!DOCTYPE svg PUBLIC "-//W3C//DTD SVG 1.1//EN" "http://www.w3.org/Graphics/SVG/1.1/DTD/svg11.dtd">
<svg width="100%" height="100%" viewBox="0 0 290 243" version="1.1" xmlns="http://www.w3.org/2000/svg" xmlns:xlink="http://www.w3.org/1999/xlink" xml:space="preserve" xmlns:serif="http://www.serif.com/" style="fill-rule:evenodd;clip-rule:evenodd;stroke-linejoin:round;stroke-miterlimit:2;">
    <g transform="matrix(1,0,0,1,-1287.03,-156.843)">
        <g transform="matrix(0.856959,0,0,0.856959,798.92,-163.941)">
            <g transform="matrix(0.872279,0,0,0.872279,567.482,39.1289)">
                <path d="M278.108,503.29C278.495,503.29 278.863,503.122 279.118,502.83C279.372,502.538 279.487,502.151 279.434,501.767C278.807,497.369 277.838,493.081 276.554,488.931C268.213,461.976 246.572,440.842 219.314,433.211C218.735,433.05 218.334,432.524 218.334,431.923C218.333,428.985 218.333,420.483 218.333,416.854C218.333,416.446 218.519,416.061 218.838,415.807C219.157,415.553 219.574,415.459 219.972,415.55C256.469,424.162 285.329,452.645 294.481,488.931C295.562,493.218 296.368,497.615 296.879,502.1C296.955,502.777 297.527,503.289 298.208,503.289C301.179,503.29 308.796,503.29 311.105,503.29C311.528,503.29 311.926,503.49 312.179,503.83C313.82,506.04 320.074,514.466 323.045,518.468C323.346,518.874 323.393,519.415 323.166,519.867C322.939,520.318 322.477,520.603 321.971,520.603C311.052,520.603 269.967,520.603 264.204,520.603C263.781,520.603 263.383,520.403 263.13,520.063C261.489,517.852 255.235,509.427 252.264,505.425C251.963,505.019 251.916,504.478 252.143,504.026C252.37,503.574 252.833,503.29 253.338,503.29C259.271,503.29 273.433,503.29 278.108,503.29ZM96.379,521.836C96.325,521.14 95.744,520.604 95.046,520.604C91.882,520.603 83.592,520.603 81.172,520.603C80.749,520.603 80.351,520.403 80.099,520.064C78.456,517.856 72.186,509.429 69.207,505.426C68.905,505.02 68.858,504.479 69.085,504.027C69.312,503.575 69.775,503.29 70.28,503.29C81.201,503.29 122.255,503.29 128.011,503.29C128.434,503.29 128.832,503.489 129.085,503.829C130.728,506.037 136.998,514.464 139.976,518.467C140.278,518.873 140.325,519.414 140.098,519.866C139.871,520.318 139.409,520.603 138.903,520.603C133.115,520.603 119.548,520.603 115.066,520.603C114.688,520.603 114.328,520.763 114.075,521.042C113.821,521.322 113.698,521.696 113.734,522.071C114.181,526.498 114.974,530.823 116.086,535.019C123.371,562.511 144.345,584.457 171.257,593.105C171.812,593.281 172.188,593.796 172.188,594.379C172.19,597.285 172.19,605.888 172.19,609.593C172.19,610.008 171.997,610.4 171.668,610.653C171.339,610.906 170.911,610.993 170.51,610.886C134.407,601.14 106.307,571.811 98.332,535.019C97.4,530.72 96.742,526.32 96.379,521.836ZM186.642,432.266C186.642,431.88 186.475,431.512 186.184,431.258C185.893,431.004 185.506,430.888 185.123,430.941C180.691,431.562 176.371,432.531 172.19,433.821C146.223,441.828 125.646,462.174 117.319,487.999C117.142,488.553 116.628,488.929 116.046,488.929C113.14,488.931 104.534,488.931 100.828,488.931C100.412,488.931 100.02,488.738 99.767,488.409C99.514,488.08 99.428,487.651 99.534,487.25C109.019,452.235 136.926,424.761 172.19,415.898C176.507,414.813 180.934,414.007 185.45,413.5C186.128,413.426 186.642,412.853 186.642,412.171C186.642,408.96 186.642,400.262 186.642,397.776C186.642,397.353 186.842,396.955 187.181,396.703C189.382,395.066 197.753,388.837 201.741,385.87C202.147,385.568 202.688,385.52 203.14,385.747C203.592,385.975 203.877,386.437 203.877,386.943C203.877,402.047 203.877,476.662 203.877,487.593C203.877,487.948 203.736,488.288 203.485,488.539C203.234,488.79 202.894,488.931 202.539,488.931C197.064,488.931 176.468,488.931 172.641,488.931C172.252,488.931 171.881,489.101 171.627,489.396C170.625,490.562 167.994,493.62 166.703,495.122C166.278,495.616 166.271,496.346 166.688,496.848C167.973,498.398 170.619,501.59 171.626,502.805C171.88,503.112 172.258,503.29 172.656,503.29C178.823,503.29 228.408,503.29 234.779,503.29C235.202,503.29 235.601,503.49 235.853,503.83C238.22,507.018 250.352,523.362 253.183,527.176C253.534,527.649 253.535,528.296 253.184,528.769C250.297,532.669 237.704,549.68 235.289,552.941C235.037,553.282 234.638,553.483 234.214,553.483C230.307,553.483 210.563,553.483 205.215,553.483C204.86,553.483 204.52,553.624 204.269,553.875C204.018,554.126 203.877,554.466 203.877,554.821C203.877,561.218 203.877,588.65 203.877,595.324C203.877,595.701 204.037,596.061 204.317,596.315C204.597,596.569 204.971,596.692 205.347,596.655C209.787,596.201 214.125,595.4 218.333,594.277C246.821,586.677 269.333,564.372 277.225,536.003C277.385,535.423 277.912,535.021 278.514,535.021C281.452,535.019 289.951,535.019 293.576,535.019C293.984,535.019 294.369,535.205 294.623,535.524C294.877,535.842 294.972,536.259 294.88,536.656C286.063,574.263 256.153,603.786 218.333,612.038C214.021,612.979 209.606,613.644 205.109,614.012C204.413,614.067 203.877,614.648 203.877,615.345C203.877,618.284 203.877,625.595 203.877,627.85C203.877,628.273 203.677,628.672 203.337,628.924C201.134,630.559 192.763,636.773 188.777,639.732C188.371,640.034 187.83,640.08 187.378,639.853C186.927,639.626 186.642,639.164 186.642,638.658C186.642,623.412 186.642,547.397 186.642,536.357C186.642,536.002 186.783,535.662 187.034,535.411C187.285,535.16 187.625,535.019 187.98,535.019C193.653,535.019 215.617,535.019 219.607,535.019C220.002,535.019 220.377,534.845 220.631,534.542C221.621,533.364 224.19,530.305 225.443,528.814C225.854,528.325 225.861,527.613 225.461,527.115C224.216,525.566 221.627,522.342 220.632,521.103C220.378,520.787 219.994,520.603 219.589,520.603C213.367,520.603 163.84,520.603 157.478,520.603C157.055,520.603 156.657,520.403 156.404,520.064C154.038,516.884 141.909,500.583 139.076,496.775C138.724,496.302 138.723,495.654 139.074,495.18C141.962,491.279 154.554,474.27 156.968,471.009C157.22,470.668 157.619,470.467 158.043,470.467C161.8,470.467 180.166,470.467 185.304,470.467C185.659,470.467 185.999,470.326 186.25,470.076C186.501,469.825 186.642,469.484 186.642,469.13C186.642,463.121 186.642,438.641 186.642,432.266ZM218.333,471.805C218.333,471.066 218.932,470.467 219.67,470.467C224.763,470.467 243.029,470.467 250.527,470.467C251.069,470.467 251.558,470.794 251.764,471.296C251.971,471.797 251.854,472.373 251.47,472.755C247.04,477.151 237.595,486.524 235.561,488.543C235.311,488.791 234.972,488.931 234.619,488.931C232.279,488.931 223.133,488.931 219.67,488.931C218.932,488.931 218.333,488.332 218.333,487.593C218.333,484.186 218.333,475.212 218.333,471.805ZM156.555,535.411C156.806,535.16 157.146,535.019 157.501,535.019C159.674,535.019 167.655,535.019 170.852,535.019C171.207,535.019 171.547,535.16 171.798,535.411C172.049,535.662 172.19,536.002 172.19,536.357C172.19,539.764 172.19,548.738 172.19,552.145C172.19,552.5 172.049,552.84 171.798,553.091C171.547,553.342 171.207,553.483 170.852,553.483L141.713,553.483C141.172,553.483 140.684,553.157 140.477,552.657C140.27,552.157 140.384,551.582 140.767,551.199C145.159,546.807 154.528,537.438 156.555,535.411Z" style="fill:rgb(64,178,127);"/>
            </g>
            <g transform="matrix(0.493479,0,0,0.493479,198.697,221.87)">
                <g transform="matrix(1,0,0,1,25.1,41.4424)">
                    <path d="M760.007,841.108C778.296,841.108 790.238,831.758 790.238,817.076C790.238,800.809 776.017,796.482 763.208,793.169C763.189,793.165 763.171,793.16 763.153,793.155C753.084,790.423 750.062,789.269 750.062,785.238C750.062,782.645 753.665,780.772 758.854,780.772C763.992,780.772 770.073,782.38 775.793,785.213C778.029,786.345 780.761,785.52 781.997,783.34C783.252,781.197 784.754,778.547 785.973,776.399C787.259,774.131 786.468,771.251 784.204,769.958C776.713,765.878 767.841,763.222 758.854,763.222C741.286,763.222 729.632,773.292 729.776,787.399C729.92,802.08 741.695,806.263 756.938,810.006C756.964,810.013 756.991,810.019 757.017,810.026C764.637,812.038 770.096,813.482 770.096,818.084C770.096,821.397 766.06,823.702 760.439,823.702C752.362,823.702 745.34,821.327 739.442,817.887C737.245,816.561 734.391,817.244 733.033,819.421C731.679,821.524 730.071,824.103 728.781,826.172C727.438,828.324 728.031,831.151 730.125,832.581C738.688,838.066 749.613,841.108 760.007,841.108Z" style="fill:rgb(64,178,127);fill-rule:nonzero;"/>
                </g>
                <g transform="matrix(1,0,0,1,25.1,41.4424)">
                    <path d="M845.288,825.767C844.434,823.452 841.943,822.182 839.567,822.853C838.567,823.261 837.442,823.414 836.318,823.414C832.43,823.414 829.262,819.957 829.262,815.059C829.262,815.059 829.262,795.803 829.262,786.654C829.262,784.042 831.379,781.924 833.991,781.924C836.092,781.924 838.56,781.924 840.66,781.924C843.272,781.924 845.39,779.807 845.39,777.195C845.39,774.85 845.39,772.025 845.39,769.68C845.39,767.068 843.272,764.95 840.66,764.95C838.56,764.95 836.092,764.95 833.991,764.95C832.737,764.95 831.534,764.452 830.647,763.565C829.76,762.678 829.262,761.475 829.262,760.221C829.262,756.92 829.262,752.532 829.262,749.232C829.262,747.977 828.764,746.774 827.877,745.887C826.99,745.001 825.787,744.502 824.532,744.502C821.313,744.502 817.069,744.502 813.849,744.502C812.595,744.502 811.392,745.001 810.505,745.887C809.618,746.774 809.12,747.977 809.12,749.232C809.12,752.532 809.12,756.92 809.12,760.221C809.12,761.475 808.622,762.678 807.735,763.565C806.848,764.452 805.645,764.95 804.39,764.95C804.136,764.95 803.88,764.95 803.625,764.95C801.013,764.95 798.896,767.068 798.896,769.68C798.896,772.025 798.896,774.85 798.896,777.195C798.896,779.807 801.013,781.924 803.625,781.924C803.88,781.924 804.136,781.924 804.39,781.924C807.002,781.924 809.12,784.042 809.12,786.654C809.12,796.511 809.12,818.372 809.12,818.372C809.12,831.758 818.328,841.108 831.422,841.108C836.203,841.108 841.435,839.49 845.551,836.893C847.318,835.69 848.039,833.438 847.3,831.432C846.748,829.725 845.977,827.635 845.288,825.767Z" style="fill:rgb(64,178,127);fill-rule:nonzero;"/>
                </g>
                <g transform="matrix(1,0,0,1,25.1,41.4424)">
                    <path d="M889.342,770.093C888.223,771.125 886.6,771.397 885.205,770.786C883.811,770.175 882.91,768.797 882.91,767.275C882.686,767.275 882.686,767.275 882.686,767.275C882.664,765.985 881.612,764.95 880.321,764.95C876.962,764.95 870.737,764.95 866.409,764.95C863.797,764.95 861.68,767.068 861.68,769.68C861.68,783.088 861.68,821.243 861.68,834.651C861.68,837.263 863.797,839.38 866.409,839.38C869.857,839.38 874.509,839.38 877.957,839.38C880.568,839.38 882.686,837.263 882.686,834.651C882.686,824.98 882.686,803.821 882.686,803.821C882.686,791.148 890.855,782.626 903.972,781.146C906.345,780.878 908.137,778.871 908.137,776.483C908.174,774.008 908.174,770.914 908.174,768.337C908.174,766.929 907.548,765.594 906.464,764.695C905.381,763.796 903.953,763.426 902.569,763.687C897.505,764.653 893.014,766.856 889.342,770.093Z" style="fill:rgb(64,178,127);fill-rule:nonzero;"/>
                </g>
                <g transform="matrix(1,0,0,1,25.1,41.4424)">
                    <path d="M953.544,763.222C944.649,763.222 935.863,765.337 926.918,769.296C925.741,769.821 924.83,770.806 924.399,772.02C923.967,773.234 924.051,774.573 924.632,775.723C925.513,777.505 926.546,779.551 927.429,781.302C928.558,783.534 931.229,784.502 933.525,783.511C938.298,781.447 943.413,780.052 948.789,780.052C961.037,780.052 965.936,786.974 965.936,794.899C965.936,794.899 965.936,794.901 965.936,794.903C965.935,795.228 965.776,795.533 965.51,795.719C965.244,795.905 964.903,795.95 964.597,795.839C958.669,793.717 952.543,792.598 946.916,792.598C929.636,792.598 915.968,802.665 915.968,817.358C915.968,831.616 928.197,841.108 944.035,841.108C950.212,841.108 956.643,839.254 961.71,835.674C962.491,835.075 963.544,834.972 964.427,835.408C965.309,835.843 965.868,836.742 965.868,837.726C965.936,837.729 965.936,837.732 965.936,837.734C965.936,838.171 966.109,838.59 966.418,838.898C966.727,839.207 967.145,839.38 967.582,839.38C970.578,839.38 977.026,839.38 981.492,839.38C982.747,839.38 983.95,838.882 984.837,837.995C985.724,837.108 986.222,835.905 986.222,834.651C986.222,823.202 986.222,794.899 986.222,794.899C986.222,775.449 972.986,763.222 953.544,763.222ZM948.789,826.582C941.585,826.582 936.254,822.835 936.254,816.782C936.254,810.728 942.306,806.26 949.942,806.26C954.363,806.26 958.613,806.854 962.5,807.911C964.523,808.488 965.918,810.337 965.918,812.441C965.936,813.637 965.936,814.836 965.936,815.465C965.936,815.892 965.879,816.317 965.765,816.729C963.892,823.125 956.54,826.582 948.789,826.582Z" style="fill:rgb(64,178,127);fill-rule:nonzero;"/>
                </g>
                <g transform="matrix(1,0,0,1,25.1,41.4424)">
                    <path d="M1044.87,825.767C1044.02,823.452 1041.53,822.182 1039.15,822.853C1038.15,823.261 1037.03,823.414 1035.9,823.414C1032.01,823.414 1028.85,819.957 1028.85,815.059C1028.85,815.059 1028.85,795.803 1028.85,786.654C1028.85,784.042 1030.96,781.924 1033.58,781.924C1035.68,781.924 1038.14,781.924 1040.24,781.924C1042.86,781.924 1044.97,779.807 1044.97,777.195C1044.97,774.85 1044.97,772.025 1044.97,769.68C1044.97,767.068 1042.86,764.95 1040.24,764.95C1038.14,764.95 1035.68,764.95 1033.58,764.95C1032.32,764.95 1031.12,764.452 1030.23,763.565C1029.34,762.678 1028.85,761.475 1028.85,760.221C1028.85,756.92 1028.85,752.532 1028.85,749.232C1028.85,747.977 1028.35,746.774 1027.46,745.887C1026.57,745.001 1025.37,744.502 1024.12,744.502C1020.9,744.502 1016.65,744.502 1013.43,744.502C1012.18,744.502 1010.98,745.001 1010.09,745.887C1009.2,746.774 1008.7,747.977 1008.7,749.232C1008.7,752.532 1008.7,756.92 1008.7,760.221C1008.7,761.475 1008.21,762.678 1007.32,763.565C1006.43,764.452 1005.23,764.95 1003.97,764.95C1003.72,764.95 1003.46,764.95 1003.21,764.95C1000.6,764.95 998.48,767.068 998.48,769.68C998.48,772.025 998.48,774.85 998.48,777.195C998.48,779.807 1000.6,781.924 1003.21,781.924C1003.46,781.924 1003.72,781.924 1003.97,781.924C1006.59,781.924 1008.7,784.042 1008.7,786.654C1008.7,796.511 1008.7,818.372 1008.7,818.372C1008.7,831.758 1017.91,841.108 1031.01,841.108C1035.79,841.108 1041.02,839.49 1045.13,836.893C1046.9,835.69 1047.62,833.438 1046.88,831.432C1046.33,829.725 1045.56,827.635 1044.87,825.767Z" style="fill:rgb(64,178,127);fill-rule:nonzero;"/>
                </g>
                <g transform="matrix(1,0,0,1,25.1,41.4424)">
                    <path d="M1107.19,763.222C1100.53,763.222 1094.58,765.064 1089.61,768.403C1088.22,769.375 1086.4,769.494 1084.9,768.711C1083.4,767.928 1082.45,766.373 1082.45,764.678C1082.27,757.661 1082.27,748.809 1082.27,743.472C1082.27,740.86 1080.15,738.742 1077.54,738.742C1074.09,738.742 1069.44,738.742 1065.99,738.742C1063.38,738.742 1061.26,740.86 1061.26,743.472C1061.26,760.382 1061.26,817.74 1061.26,834.651C1061.26,837.263 1063.38,839.38 1065.99,839.38C1071.63,839.38 1080.48,839.38 1082.03,839.38C1082.16,839.38 1082.27,839.274 1082.27,839.144C1082.27,838.887 1082.27,838.434 1082.27,837.858C1082.27,836.402 1083.1,835.075 1084.41,834.441C1085.73,833.807 1087.28,833.979 1088.42,834.883C1093.56,838.936 1099.95,841.108 1107.19,841.108C1127.07,841.108 1141.45,824.997 1141.45,802.093C1141.45,779.334 1127.07,763.222 1107.19,763.222ZM1101.14,823.414C1091.01,823.414 1083.56,816.062 1082.3,805.28C1082.28,805.099 1082.27,804.918 1082.27,804.736C1082.27,803.8 1082.27,800.394 1082.27,799.454C1082.27,799.269 1082.28,799.084 1082.3,798.9C1083.57,788.264 1091.01,780.916 1101.14,780.916C1112.81,780.916 1121.02,789.704 1121.02,802.093C1121.02,814.626 1112.81,823.414 1101.14,823.414Z" style="fill:rgb(64,178,127);fill-rule:nonzero;"/>
                </g>
                <g transform="matrix(1,0,0,1,25.1,41.4424)">
                    <path d="M1192.87,841.108C1214.91,841.108 1233.33,823.27 1233.33,802.093C1233.33,780.916 1214.91,763.222 1192.87,763.222C1170.69,763.222 1152.13,780.916 1152.13,802.093C1152.13,823.27 1170.69,841.108 1192.87,841.108ZM1192.87,823.414C1181.63,823.414 1172.27,813.618 1172.27,802.093C1172.27,790.568 1181.63,780.916 1192.87,780.916C1203.96,780.916 1213.33,790.568 1213.33,802.093C1213.33,813.618 1203.96,823.414 1192.87,823.414Z" style="fill:rgb(64,178,127);fill-rule:nonzero;"/>
                </g>
                <g transform="matrix(1,0,0,1,25.1,41.4424)">
                    <path d="M1284.17,841.108C1306.21,841.108 1324.62,823.27 1324.62,802.093C1324.62,780.916 1306.21,763.222 1284.17,763.222C1261.98,763.222 1243.42,780.916 1243.42,802.093C1243.42,823.27 1261.98,841.108 1284.17,841.108ZM1284.17,823.414C1272.93,823.414 1263.57,813.618 1263.57,802.093C1263.57,790.568 1272.93,780.916 1284.17,780.916C1295.26,780.916 1304.62,790.568 1304.62,802.093C1304.62,813.618 1295.26,823.414 1284.17,823.414Z" style="fill:rgb(64,178,127);fill-rule:nonzero;"/>
                </g>
                <g transform="matrix(1,0,0,1,25.1,41.4424)">
                    <path d="M1404.42,772.8C1405.64,771.404 1405.94,769.421 1405.17,767.729C1404.41,766.037 1402.72,764.95 1400.86,764.95C1396.53,764.95 1391.91,764.95 1389.29,764.95C1387.91,764.95 1386.6,765.55 1385.7,766.593C1382.44,770.384 1374.17,779.983 1367.78,787.402C1366.49,788.9 1364.41,789.437 1362.55,788.749C1360.7,788.061 1359.47,786.293 1359.47,784.316C1359.47,771.457 1359.47,752.277 1359.47,743.472C1359.47,740.86 1357.35,738.742 1354.74,738.742C1351.29,738.742 1346.64,738.742 1343.19,738.742C1340.58,738.742 1338.46,740.86 1338.46,743.472C1338.46,760.382 1338.46,817.74 1338.46,834.651C1338.46,837.263 1340.58,839.38 1343.19,839.38C1346.64,839.38 1351.29,839.38 1354.74,839.38C1357.35,839.38 1359.47,837.263 1359.47,834.651C1359.47,830.835 1359.47,825.67 1359.47,822.95C1359.47,821.758 1359.92,820.611 1360.73,819.737C1361.67,818.723 1363.01,817.277 1364.3,815.877C1365.29,814.811 1366.71,814.257 1368.16,814.376C1369.61,814.494 1370.92,815.272 1371.72,816.484C1375.8,822.663 1382.53,832.86 1385.43,837.256C1386.3,838.582 1387.79,839.38 1389.38,839.38L1402,839.38C1403.76,839.38 1405.38,838.405 1406.19,836.847C1407.01,835.29 1406.89,833.408 1405.89,831.962C1399.52,822.74 1388.94,807.426 1384.46,800.954C1383.23,799.17 1383.37,796.775 1384.8,795.145C1389.08,790.271 1398.09,780.003 1404.42,772.8Z" style="fill:rgb(64,178,127);fill-rule:nonzero;"/>
                </g>
            </g>
        </g>
    </g>
</svg>
