<?xml version="1.0" encoding="UTF-8" standalone="no"?>
<!DOCTYPE svg PUBLIC "-//W3C//DTD SVG 1.1//EN" "http://www.w3.org/Graphics/SVG/1.1/DTD/svg11.dtd">
<svg width="100%" height="100%" viewBox="0 0 703 106" version="1.1" xmlns="http://www.w3.org/2000/svg" xmlns:xlink="http://www.w3.org/1999/xlink" xml:space="preserve" xmlns:serif="http://www.serif.com/" style="fill-rule:evenodd;clip-rule:evenodd;stroke-linejoin:round;stroke-miterlimit:2;">
    <g transform="matrix(1,0,0,1,-380.487,-173.009)">
        <g transform="matrix(1.15828,0,0,1.15828,-149.254,-519.229)">
            <g transform="matrix(0.885864,0,0,0.885864,-208.43,-93.4912)">
                <g transform="matrix(1,0,0,1,25.1,41.4424)">
                    <path d="M760.007,841.108C778.296,841.108 790.238,831.758 790.238,817.076C790.238,800.802 776.003,796.478 763.19,793.165C763.182,793.163 763.175,793.161 763.167,793.159C753.086,790.424 750.062,789.271 750.062,785.238C750.062,782.645 753.665,780.772 758.854,780.772C764.674,780.772 771.705,782.836 778.049,786.405C778.498,786.662 779.03,786.729 779.529,786.593C780.027,786.456 780.451,786.126 780.706,785.677C782.367,782.758 785.706,776.869 787.315,774.03C787.829,773.125 787.541,771.976 786.661,771.42C778.708,766.509 768.852,763.222 758.854,763.222C741.286,763.222 729.632,773.292 729.776,787.399C729.92,802.088 741.708,806.268 756.963,810.012C756.974,810.015 756.985,810.018 756.996,810.021C764.627,812.035 770.096,813.477 770.096,818.084C770.096,821.397 766.06,823.702 760.439,823.702C751.31,823.702 743.529,820.667 737.194,816.492C736.757,816.197 736.218,816.093 735.702,816.203C735.186,816.313 734.737,816.628 734.458,817.076C732.659,819.952 729.087,825.682 727.394,828.396C726.861,829.251 727.067,830.372 727.87,830.981C736.691,837.485 748.665,841.108 760.007,841.108Z" style="fill:rgb(64,178,127);fill-rule:nonzero;"/>
                </g>
                <g transform="matrix(1,0,0,1,25.1,41.4424)">
                    <path d="M844.356,823.239C844.158,822.703 843.735,822.281 843.199,822.084C842.662,821.887 842.067,821.936 841.569,822.217C840.112,822.977 838.215,823.414 836.318,823.414C832.43,823.414 829.262,819.957 829.262,815.059C829.262,815.059 829.262,790.973 829.262,783.873C829.262,782.797 830.134,781.924 831.211,781.924C834.313,781.924 840.339,781.924 843.441,781.924C844.517,781.924 845.39,781.052 845.39,779.975C845.39,776.708 845.39,770.166 845.39,766.899C845.39,765.823 844.517,764.95 843.441,764.95C840.339,764.95 834.313,764.95 831.211,764.95C830.694,764.95 830.198,764.745 829.833,764.379C829.467,764.014 829.262,763.518 829.262,763.001C829.262,759.096 829.262,750.356 829.262,746.451C829.262,745.934 829.056,745.439 828.691,745.073C828.325,744.708 827.83,744.502 827.313,744.502C823.462,744.502 814.92,744.502 811.069,744.502C810.552,744.502 810.056,744.708 809.691,745.073C809.325,745.439 809.12,745.934 809.12,746.451C809.12,750.356 809.12,759.096 809.12,763.001C809.12,763.518 808.914,764.014 808.549,764.379C808.183,764.745 807.688,764.95 807.171,764.95C805.355,764.95 802.661,764.95 800.845,764.95C799.768,764.95 798.896,765.823 798.896,766.899C798.896,770.166 798.896,776.708 798.896,779.975C798.896,781.052 799.768,781.924 800.845,781.924C802.661,781.924 805.355,781.924 807.171,781.924C807.688,781.924 808.183,782.13 808.549,782.495C808.914,782.861 809.12,783.356 809.12,783.873C809.12,791.428 809.12,818.372 809.12,818.372C809.12,831.758 818.328,841.108 831.422,841.108C836.991,841.108 843.17,838.913 847.486,835.533C848.126,835.009 848.364,834.137 848.078,833.361C847.234,831.045 845.424,826.136 844.356,823.239Z" style="fill:rgb(64,178,127);fill-rule:nonzero;"/>
                </g>
                <g transform="matrix(1,0,0,1,25.1,41.4424)">
                    <path d="M886.13,773.443C885.611,774.074 884.751,774.311 883.982,774.036C883.212,773.76 882.699,773.03 882.699,772.213C882.686,770.275 882.686,768.3 882.686,766.899C882.686,765.823 881.813,764.95 880.737,764.95C876.735,764.95 867.631,764.95 863.629,764.95C862.552,764.95 861.68,765.823 861.68,766.899C861.68,777.38 861.68,826.951 861.68,837.431C861.68,838.508 862.552,839.38 863.629,839.38C867.631,839.38 876.735,839.38 880.737,839.38C881.813,839.38 882.686,838.508 882.686,837.431C882.686,829.997 882.686,803.821 882.686,803.821C882.686,790.411 891.832,781.649 906.31,780.96C907.349,780.914 908.168,780.059 908.168,779.019C908.174,775.653 908.174,768.669 908.174,765.227C908.174,764.691 907.953,764.178 907.562,763.809C907.172,763.441 906.647,763.25 906.111,763.281C897.911,763.815 890.96,767.49 886.13,773.443Z" style="fill:rgb(64,178,127);fill-rule:nonzero;"/>
                </g>
                <g transform="matrix(1,0,0,1,25.1,41.4424)">
                    <path d="M953.544,763.222C943.755,763.222 934.099,765.784 924.218,770.544C923.748,770.771 923.389,771.178 923.222,771.672C923.055,772.167 923.094,772.708 923.329,773.173C924.686,775.866 927.27,780.987 928.621,783.663C929.1,784.612 930.253,785.001 931.21,784.538C936.641,781.937 942.538,780.052 948.789,780.052C961.037,780.052 965.936,786.974 965.936,794.899C965.936,794.899 965.936,794.899 965.936,794.9C965.936,795.226 965.777,795.531 965.51,795.718C965.243,795.906 964.901,795.951 964.595,795.839C958.667,793.717 952.543,792.598 946.916,792.598C929.636,792.598 915.968,802.665 915.968,817.358C915.968,831.616 928.197,841.108 944.035,841.108C950.644,841.108 957.544,838.985 962.753,834.897C963.321,834.417 964.116,834.31 964.791,834.623C965.466,834.937 965.897,835.613 965.897,836.356C965.936,836.73 965.936,837.093 965.936,837.431C965.936,837.948 966.141,838.444 966.507,838.809C966.872,839.175 967.368,839.38 967.885,839.38C971.761,839.38 980.396,839.38 984.273,839.38C985.349,839.38 986.222,838.508 986.222,837.431C986.222,828.857 986.222,794.899 986.222,794.899C986.222,775.449 972.986,763.222 953.544,763.222ZM948.789,826.582C941.585,826.582 936.254,822.835 936.254,816.782C936.254,810.728 942.306,806.26 949.942,806.26C955.175,806.26 960.171,807.092 964.606,808.54C965.399,808.806 965.933,809.549 965.933,810.386C965.936,812.119 965.936,814.951 965.936,815.719C965.936,815.866 965.92,816.012 965.888,816.155C964.32,822.92 956.766,826.582 948.789,826.582Z" style="fill:rgb(64,178,127);fill-rule:nonzero;"/>
                </g>
                <g transform="matrix(1,0,0,1,25.1,41.4424)">
                    <path d="M1043.94,823.239C1043.74,822.703 1043.32,822.281 1042.78,822.084C1042.25,821.887 1041.65,821.936 1041.15,822.217C1039.7,822.977 1037.8,823.414 1035.9,823.414C1032.01,823.414 1028.85,819.957 1028.85,815.059C1028.85,815.059 1028.85,790.973 1028.85,783.873C1028.85,782.797 1029.72,781.924 1030.8,781.924C1033.9,781.924 1039.92,781.924 1043.03,781.924C1044.1,781.924 1044.97,781.052 1044.97,779.975C1044.97,776.708 1044.97,770.166 1044.97,766.899C1044.97,765.823 1044.1,764.95 1043.03,764.95C1039.92,764.95 1033.9,764.95 1030.8,764.95C1030.28,764.95 1029.78,764.745 1029.42,764.379C1029.05,764.014 1028.85,763.518 1028.85,763.001C1028.85,759.096 1028.85,750.356 1028.85,746.451C1028.85,745.934 1028.64,745.439 1028.28,745.073C1027.91,744.708 1027.41,744.502 1026.9,744.502C1023.05,744.502 1014.5,744.502 1010.65,744.502C1010.14,744.502 1009.64,744.708 1009.27,745.073C1008.91,745.439 1008.7,745.934 1008.7,746.451C1008.7,750.356 1008.7,759.096 1008.7,763.001C1008.7,763.518 1008.5,764.014 1008.13,764.379C1007.77,764.745 1007.27,764.95 1006.75,764.95C1004.94,764.95 1002.25,764.95 1000.43,764.95C999.352,764.95 998.48,765.823 998.48,766.899C998.48,770.166 998.48,776.708 998.48,779.975C998.48,781.052 999.352,781.924 1000.43,781.924C1002.25,781.924 1004.94,781.924 1006.75,781.924C1007.27,781.924 1007.77,782.13 1008.13,782.495C1008.5,782.861 1008.7,783.356 1008.7,783.873C1008.7,791.428 1008.7,818.372 1008.7,818.372C1008.7,831.758 1017.91,841.108 1031.01,841.108C1036.58,841.108 1042.75,838.913 1047.07,835.533C1047.71,835.009 1047.95,834.137 1047.66,833.361C1046.82,831.045 1045.01,826.136 1043.94,823.239Z" style="fill:rgb(64,178,127);fill-rule:nonzero;"/>
                </g>
                <g transform="matrix(1,0,0,1,25.1,41.4424)">
                    <path d="M1107.19,763.222C1098.61,763.222 1091.21,766.275 1085.57,771.647C1085.02,772.192 1084.2,772.354 1083.48,772.057C1082.77,771.76 1082.31,771.063 1082.31,770.29C1082.27,762.1 1082.27,746.215 1082.27,740.691C1082.27,739.615 1081.4,738.742 1080.32,738.742C1076.32,738.742 1067.21,738.742 1063.21,738.742C1062.14,738.742 1061.26,739.615 1061.26,740.691C1061.26,753.43 1061.26,824.692 1061.26,837.431C1061.26,838.508 1062.14,839.38 1063.21,839.38C1067.21,839.38 1076.32,839.38 1080.32,839.38C1081.4,839.38 1082.27,838.508 1082.27,837.431C1082.27,836.444 1082.27,835.194 1082.27,833.957C1082.27,833.168 1082.75,832.456 1083.48,832.156C1084.21,831.855 1085.05,832.024 1085.6,832.584C1091.22,838.058 1098.62,841.108 1107.19,841.108C1127.07,841.108 1141.45,824.997 1141.45,802.093C1141.45,779.334 1127.07,763.222 1107.19,763.222ZM1101.14,823.414C1090.95,823.414 1083.47,815.973 1082.28,805.084C1082.27,805.014 1082.27,804.944 1082.27,804.873C1082.27,804.17 1082.27,800.022 1082.27,799.314C1082.27,799.243 1082.27,799.171 1082.28,799.1C1083.47,788.356 1090.95,780.916 1101.14,780.916C1112.81,780.916 1121.02,789.704 1121.02,802.093C1121.02,814.626 1112.81,823.414 1101.14,823.414Z" style="fill:rgb(64,178,127);fill-rule:nonzero;"/>
                </g>
                <g transform="matrix(1,0,0,1,25.1,41.4424)">
                    <path d="M1192.87,841.108C1214.91,841.108 1233.33,823.27 1233.33,802.093C1233.33,780.916 1214.91,763.222 1192.87,763.222C1170.69,763.222 1152.13,780.916 1152.13,802.093C1152.13,823.27 1170.69,841.108 1192.87,841.108ZM1192.87,823.414C1181.63,823.414 1172.27,813.618 1172.27,802.093C1172.27,790.568 1181.63,780.916 1192.87,780.916C1203.96,780.916 1213.33,790.568 1213.33,802.093C1213.33,813.618 1203.96,823.414 1192.87,823.414Z" style="fill:rgb(64,178,127);fill-rule:nonzero;"/>
                </g>
                <g transform="matrix(1,0,0,1,25.1,41.4424)">
                    <path d="M1284.17,841.108C1306.21,841.108 1324.62,823.27 1324.62,802.093C1324.62,780.916 1306.21,763.222 1284.17,763.222C1261.98,763.222 1243.42,780.916 1243.42,802.093C1243.42,823.27 1261.98,841.108 1284.17,841.108ZM1284.17,823.414C1272.93,823.414 1263.57,813.618 1263.57,802.093C1263.57,790.568 1272.93,780.916 1284.17,780.916C1295.26,780.916 1304.62,790.568 1304.62,802.093C1304.62,813.618 1295.26,823.414 1284.17,823.414Z" style="fill:rgb(64,178,127);fill-rule:nonzero;"/>
                </g>
                <g transform="matrix(1,0,0,1,25.1,41.4424)">
                    <path d="M1408.47,768.185C1408.98,767.61 1409.1,766.793 1408.78,766.095C1408.46,765.398 1407.77,764.95 1407.01,764.95L1388.01,764.95C1387.44,764.95 1386.9,765.198 1386.54,765.627C1383.51,769.142 1369.48,785.434 1362.9,793.076C1362.36,793.694 1361.51,793.915 1360.74,793.632C1359.98,793.348 1359.47,792.619 1359.47,791.804C1359.47,779.4 1359.47,748.721 1359.47,740.691C1359.47,739.615 1358.6,738.742 1357.52,738.742C1353.52,738.742 1344.41,738.742 1340.41,738.742C1339.34,738.742 1338.46,739.615 1338.46,740.691C1338.46,753.43 1338.46,824.692 1338.46,837.431C1338.46,838.508 1339.34,839.38 1340.41,839.38C1344.41,839.38 1353.52,839.38 1357.52,839.38C1358.04,839.38 1358.53,839.175 1358.9,838.809C1359.26,838.444 1359.47,837.948 1359.47,837.431C1359.47,833.447 1359.47,824.522 1359.47,821.86C1359.47,821.369 1359.65,820.897 1359.99,820.536C1361.27,819.149 1364.65,815.504 1366.71,813.275C1367.12,812.836 1367.7,812.608 1368.3,812.656C1368.9,812.705 1369.44,813.026 1369.77,813.525C1373.49,819.173 1383.71,834.655 1386.25,838.505C1386.61,839.051 1387.22,839.38 1387.88,839.38C1391.21,839.38 1401.65,839.38 1407.31,839.38C1408.03,839.38 1408.69,838.978 1409.03,838.336C1409.37,837.695 1409.32,836.919 1408.91,836.323C1403.11,827.934 1387.13,804.807 1383.23,799.17C1382.72,798.434 1382.78,797.447 1383.37,796.775C1387.36,792.231 1402.19,775.34 1408.47,768.185Z" style="fill:rgb(64,178,127);fill-rule:nonzero;"/>
                </g>
            </g>
        </g>
    </g>
</svg>
