<?xml version="1.0" encoding="UTF-8" standalone="no"?>
<!DOCTYPE svg PUBLIC "-//W3C//DTD SVG 1.1//EN" "http://www.w3.org/Graphics/SVG/1.1/DTD/svg11.dtd">
<svg width="100%" height="100%" viewBox="0 0 226 163" version="1.1" xmlns="http://www.w3.org/2000/svg" xmlns:xlink="http://www.w3.org/1999/xlink" xml:space="preserve" xmlns:serif="http://www.serif.com/" style="fill-rule:evenodd;clip-rule:evenodd;stroke-linejoin:round;stroke-miterlimit:2;">
    <g transform="matrix(1,0,0,1,-15.258,-46.6339)">
        <g transform="matrix(1,0,0,1,1.16217,0.0490571)">
            <path d="M239.58,68.264L239.58,187.638C239.58,199.603 229.866,209.317 217.9,209.317L35.775,209.317C23.81,209.317 14.096,199.603 14.096,187.638L14.096,68.264C14.096,56.299 23.81,46.585 35.775,46.585L217.9,46.585C229.866,46.585 239.58,56.299 239.58,68.264ZM202.953,176.483C202.953,176.085 202.795,175.704 202.513,175.422C202.232,175.141 201.851,174.983 201.453,174.983C198.522,174.983 192.068,174.983 189.137,174.983C188.739,174.983 188.358,175.141 188.077,175.422C187.795,175.704 187.637,176.085 187.637,176.483C187.637,178.641 187.637,182.598 187.637,184.756C187.637,185.154 187.795,185.536 188.077,185.817C188.358,186.098 188.739,186.256 189.137,186.256C192.068,186.256 198.522,186.256 201.453,186.256C201.851,186.256 202.232,186.098 202.513,185.817C202.795,185.536 202.953,185.154 202.953,184.756C202.953,182.598 202.953,178.641 202.953,176.483ZM60.411,157.216C67.691,157.216 74.333,153.881 79.195,148.504C79.718,147.915 79.692,147.02 79.137,146.461C77.482,144.787 74.113,141.396 72.319,139.59C72.022,139.292 71.613,139.132 71.192,139.15C70.771,139.167 70.377,139.361 70.106,139.684C67.576,142.643 64.161,144.478 60.411,144.478C52.804,144.478 46.357,136.917 46.357,127.959C46.357,119.083 52.804,111.522 60.411,111.522C64.089,111.522 67.545,113.348 70.05,116.284C70.316,116.607 70.706,116.802 71.124,116.821C71.542,116.84 71.948,116.682 72.243,116.385C74.066,114.576 77.464,111.152 79.136,109.468C79.696,108.904 79.719,108 79.187,107.409C74.321,102.113 67.685,98.784 60.411,98.784C45.85,98.784 33.607,112.097 33.607,127.959C33.607,143.82 45.85,157.216 60.411,157.216ZM109.31,154.73C109.31,155.128 109.468,155.51 109.749,155.791C110.03,156.072 110.412,156.23 110.81,156.23C113.192,156.23 117.815,156.23 120.197,156.23C120.595,156.23 120.977,156.072 121.258,155.791C121.539,155.51 121.697,155.128 121.697,154.73C121.697,152.678 121.697,149.016 121.697,146.964C121.697,146.566 121.855,146.185 122.137,145.903C122.418,145.622 122.8,145.464 123.197,145.464C124.196,145.464 125.502,145.464 126.5,145.464C127.328,145.464 128,144.793 128,143.964C128,141.725 128,137.533 128,135.294C128,134.466 127.328,133.794 126.5,133.794C125.502,133.794 124.196,133.794 123.197,133.794C122.8,133.794 122.418,133.636 122.137,133.355C121.855,133.073 121.697,132.692 121.697,132.294C121.697,126.673 121.697,106.891 121.697,101.27C121.697,100.441 121.026,99.77 120.197,99.77C117.056,99.77 109.874,99.77 107.448,99.77C106.938,99.77 106.462,100.029 106.186,100.458C103.26,105.005 86.756,130.652 84.384,134.339C84.2,134.625 84.118,134.964 84.153,135.302C84.315,136.897 84.807,141.737 85.049,144.116C85.127,144.882 85.772,145.464 86.541,145.464C90.728,145.464 103.434,145.464 107.81,145.464C108.208,145.464 108.589,145.622 108.87,145.903C109.152,146.185 109.31,146.566 109.31,146.964C109.31,149.016 109.31,152.678 109.31,154.73ZM99.66,133.794C99.112,133.794 98.608,133.495 98.344,133.015C98.081,132.534 98.101,131.948 98.396,131.487C100.401,128.348 104.026,122.671 106.546,118.726C106.904,118.165 107.591,117.907 108.23,118.094C108.87,118.281 109.31,118.867 109.31,119.534C109.31,123.801 109.31,129.594 109.31,132.294C109.31,133.122 108.638,133.794 107.81,133.794C105.793,133.794 102.17,133.794 99.66,133.794ZM185.009,139.85C185.009,139.452 184.851,139.07 184.569,138.789C184.288,138.508 183.907,138.35 183.509,138.35C180.578,138.35 174.124,138.35 171.193,138.35C170.795,138.35 170.414,138.508 170.132,138.789C169.851,139.07 169.693,139.452 169.693,139.85C169.693,142.008 169.693,145.965 169.693,148.123C169.693,148.521 169.851,148.902 170.132,149.184C170.414,149.465 170.795,149.623 171.193,149.623C174.124,149.623 180.578,149.623 183.509,149.623C183.907,149.623 184.288,149.465 184.569,149.184C184.851,148.902 185.009,148.521 185.009,148.123C185.009,145.965 185.009,142.008 185.009,139.85ZM185.009,158.166C185.009,157.769 184.851,157.387 184.569,157.106C184.288,156.825 183.907,156.666 183.509,156.666C180.578,156.666 174.124,156.666 171.193,156.666C170.795,156.666 170.414,156.825 170.132,157.106C169.851,157.387 169.693,157.769 169.693,158.166C169.693,160.324 169.693,164.282 169.693,166.44C169.693,166.837 169.851,167.219 170.132,167.5C170.414,167.782 170.795,167.94 171.193,167.94C174.124,167.94 180.578,167.94 183.509,167.94C183.907,167.94 184.288,167.782 184.569,167.5C184.851,167.219 185.009,166.837 185.009,166.44C185.009,164.282 185.009,160.324 185.009,158.166ZM185.009,176.483C185.009,176.085 184.851,175.704 184.569,175.422C184.288,175.141 183.907,174.983 183.509,174.983C180.578,174.983 174.124,174.983 171.193,174.983C170.795,174.983 170.414,175.141 170.132,175.422C169.851,175.704 169.693,176.085 169.693,176.483C169.693,178.641 169.693,182.598 169.693,184.756C169.693,185.154 169.851,185.536 170.132,185.817C170.414,186.098 170.795,186.256 171.193,186.256C174.124,186.256 180.578,186.256 183.509,186.256C183.907,186.256 184.288,186.098 184.569,185.817C184.851,185.536 185.009,185.154 185.009,184.756C185.009,182.598 185.009,178.641 185.009,176.483ZM202.953,121.533C202.953,121.135 202.795,120.754 202.513,120.473C202.232,120.191 201.851,120.033 201.453,120.033C198.522,120.033 192.068,120.033 189.137,120.033C188.739,120.033 188.358,120.191 188.077,120.473C187.795,120.754 187.637,121.135 187.637,121.533C187.637,123.691 187.637,127.648 187.637,129.806C187.637,130.204 187.795,130.586 188.077,130.867C188.358,131.148 188.739,131.306 189.137,131.306C192.068,131.306 198.522,131.306 201.453,131.306C201.851,131.306 202.232,131.148 202.513,130.867C202.795,130.586 202.953,130.204 202.953,129.806C202.953,127.648 202.953,123.691 202.953,121.533ZM202.953,139.85C202.953,139.452 202.795,139.07 202.513,138.789C202.232,138.508 201.851,138.35 201.453,138.35C198.522,138.35 192.068,138.35 189.137,138.35C188.739,138.35 188.358,138.508 188.077,138.789C187.795,139.07 187.637,139.452 187.637,139.85C187.637,142.008 187.637,145.965 187.637,148.123C187.637,148.521 187.795,148.902 188.077,149.184C188.358,149.465 188.739,149.623 189.137,149.623C192.068,149.623 198.522,149.623 201.453,149.623C201.851,149.623 202.232,149.465 202.513,149.184C202.795,148.902 202.953,148.521 202.953,148.123C202.953,145.965 202.953,142.008 202.953,139.85ZM202.953,158.166C202.953,157.769 202.795,157.387 202.513,157.106C202.232,156.825 201.851,156.666 201.453,156.666C198.522,156.666 192.068,156.666 189.137,156.666C188.739,156.666 188.358,156.825 188.077,157.106C187.795,157.387 187.637,157.769 187.637,158.166C187.637,160.324 187.637,164.282 187.637,166.44C187.637,166.837 187.795,167.219 188.077,167.5C188.358,167.782 188.739,167.94 189.137,167.94C192.068,167.94 198.522,167.94 201.453,167.94C201.851,167.94 202.232,167.782 202.513,167.5C202.795,167.219 202.953,166.837 202.953,166.44C202.953,164.282 202.953,160.324 202.953,158.166ZM185.009,121.533C185.009,121.135 184.851,120.754 184.569,120.473C184.288,120.191 183.907,120.033 183.509,120.033C180.578,120.033 174.124,120.033 171.193,120.033C170.795,120.033 170.414,120.191 170.132,120.473C169.851,120.754 169.693,121.135 169.693,121.533C169.693,123.691 169.693,127.648 169.693,129.806C169.693,130.204 169.851,130.586 170.132,130.867C170.414,131.148 170.795,131.306 171.193,131.306C174.124,131.306 180.578,131.306 183.509,131.306C183.907,131.306 184.288,131.148 184.569,130.867C184.851,130.586 185.009,130.204 185.009,129.806C185.009,127.648 185.009,123.691 185.009,121.533ZM167.065,121.533C167.065,121.135 166.907,120.754 166.625,120.473C166.344,120.191 165.963,120.033 165.565,120.033C162.634,120.033 156.18,120.033 153.249,120.033C152.851,120.033 152.47,120.191 152.188,120.473C151.907,120.754 151.749,121.135 151.749,121.533C151.749,123.691 151.749,127.648 151.749,129.806C151.749,130.204 151.907,130.586 152.188,130.867C152.47,131.148 152.851,131.306 153.249,131.306C156.18,131.306 162.634,131.306 165.565,131.306C165.963,131.306 166.344,131.148 166.625,130.867C166.907,130.586 167.065,130.204 167.065,129.806C167.065,127.648 167.065,123.691 167.065,121.533ZM213.134,75.402C213.134,75.004 212.976,74.623 212.695,74.341C212.413,74.06 212.032,73.902 211.634,73.902C202.357,73.902 152.886,73.902 143.609,73.902C143.211,73.902 142.83,74.06 142.548,74.341C142.267,74.623 142.109,75.004 142.109,75.402C142.109,80.133 142.109,94.705 142.109,99.436C142.109,99.834 142.267,100.215 142.548,100.497C142.83,100.778 143.211,100.936 143.609,100.936C152.886,100.936 202.357,100.936 211.634,100.936C212.032,100.936 212.413,100.778 212.695,100.497C212.976,100.215 213.134,99.834 213.134,99.436C213.134,94.705 213.134,80.133 213.134,75.402ZM167.065,139.85C167.065,139.452 166.907,139.07 166.625,138.789C166.344,138.508 165.963,138.35 165.565,138.35C162.634,138.35 156.18,138.35 153.249,138.35C152.851,138.35 152.47,138.508 152.188,138.789C151.907,139.07 151.749,139.452 151.749,139.85C151.749,142.008 151.749,145.965 151.749,148.123C151.749,148.521 151.907,148.902 152.188,149.184C152.47,149.465 152.851,149.623 153.249,149.623C156.18,149.623 162.634,149.623 165.565,149.623C165.963,149.623 166.344,149.465 166.625,149.184C166.907,148.902 167.065,148.521 167.065,148.123C167.065,145.965 167.065,142.008 167.065,139.85ZM167.065,176.483C167.065,176.085 166.907,175.704 166.625,175.422C166.344,175.141 165.963,174.983 165.565,174.983C162.634,174.983 156.18,174.983 153.249,174.983C152.851,174.983 152.47,175.141 152.188,175.422C151.907,175.704 151.749,176.085 151.749,176.483C151.749,178.641 151.749,182.598 151.749,184.756C151.749,185.154 151.907,185.536 152.188,185.817C152.47,186.098 152.851,186.256 153.249,186.256C156.18,186.256 162.634,186.256 165.565,186.256C165.963,186.256 166.344,186.098 166.625,185.817C166.907,185.536 167.065,185.154 167.065,184.756C167.065,182.598 167.065,178.641 167.065,176.483ZM167.065,158.166C167.065,157.769 166.907,157.387 166.625,157.106C166.344,156.825 165.963,156.666 165.565,156.666C162.634,156.666 156.18,156.666 153.249,156.666C152.851,156.666 152.47,156.825 152.188,157.106C151.907,157.387 151.749,157.769 151.749,158.166C151.749,160.324 151.749,164.282 151.749,166.44C151.749,166.837 151.907,167.219 152.188,167.5C152.47,167.782 152.851,167.94 153.249,167.94C156.18,167.94 162.634,167.94 165.565,167.94C165.963,167.94 166.344,167.782 166.625,167.5C166.907,167.219 167.065,166.837 167.065,166.44C167.065,164.282 167.065,160.324 167.065,158.166Z"/>
        </g>
    </g>
</svg>
