<?xml version="1.0" encoding="UTF-8" standalone="no"?>
<!DOCTYPE svg PUBLIC "-//W3C//DTD SVG 1.1//EN" "http://www.w3.org/Graphics/SVG/1.1/DTD/svg11.dtd">
<svg width="100%" height="100%" viewBox="0 0 207 224" version="1.1" xmlns="http://www.w3.org/2000/svg" xmlns:xlink="http://www.w3.org/1999/xlink" xml:space="preserve" xmlns:serif="http://www.serif.com/" style="fill-rule:evenodd;clip-rule:evenodd;stroke-linejoin:round;stroke-miterlimit:2;">
    <g transform="matrix(1,0,0,1,-24.3404,-16.5481)">
        <path d="M34.783,120.406C37.34,117.371 39.926,114.3 43.001,111.79C46.549,108.893 50.403,106.305 54.52,104.295C71.878,95.819 91.425,92.769 110.479,91.179C116.306,90.693 122.156,90.525 128,90.358L133.142,88.695L157.988,73.344C158.018,70.985 158.049,68.576 158.668,66.299C159.377,63.69 160.446,61.134 161.924,58.869C164.012,55.667 166.601,52.801 169.261,50.057C180.109,38.868 191.265,27.981 202.419,17.097C202.419,17.097 204.957,16.015 205.497,16.89C206.485,18.493 205.122,22.527 205.122,22.527L186.565,61.125L186.064,65.175L190.123,65.175L227.024,37.644C227.024,37.644 229.92,36.854 230.633,37.824C231.477,38.971 230.111,42.064 230.111,42.064L203.473,82.715C203.473,82.715 194.568,95.211 185.678,94.972L175.197,119.964L175.24,137.203C175.24,137.203 192.428,213.539 148.079,237.676C146.629,238.466 145.146,239.274 143.543,239.67C140.7,240.371 138.42,239.847 137.064,236.9C135.745,234.032 136.3,230.002 137.135,227.142C137.639,225.419 138.397,223.777 139.151,222.147C139.151,222.147 169.432,171.689 155.266,128L132.335,108.739C132.335,108.739 83.684,102.558 37.53,147.192C36.307,147.895 35.056,148.613 33.693,148.973C31.258,149.616 27.829,149.334 26.076,147.141C23.384,143.774 24.357,139.386 25.449,135.764C26.255,133.09 27.432,130.537 28.601,128L34.783,120.406ZM139.798,105.857L156.993,119.983L162.608,102.991L157.857,101.143L154.58,96.623L139.798,105.857Z"/>
    </g>
</svg>
