<?xml version="1.0" encoding="UTF-8" standalone="no"?>
<!DOCTYPE svg PUBLIC "-//W3C//DTD SVG 1.1//EN" "http://www.w3.org/Graphics/SVG/1.1/DTD/svg11.dtd">
<svg width="100%" height="100%" viewBox="0 0 159 210" version="1.1" xmlns="http://www.w3.org/2000/svg" xmlns:xlink="http://www.w3.org/1999/xlink" xml:space="preserve" xmlns:serif="http://www.serif.com/" style="fill-rule:evenodd;clip-rule:evenodd;stroke-linejoin:round;stroke-miterlimit:2;">
    <g transform="matrix(1,0,0,1,-48.9309,-23.4339)">
        <g transform="matrix(0.866025,0.5,-0.5,0.866025,91.4686,-41.5443)">
            <g transform="matrix(1,0,0,1,-7.87558,0)">
                <path d="M153.686,109.109C153.686,108.281 153.014,107.609 152.186,107.609C144.489,107.609 109.491,107.609 101.794,107.609C100.966,107.609 100.294,108.281 100.294,109.109C100.294,118.917 100.294,173.8 100.294,183.607C100.294,184.436 100.966,185.107 101.794,185.107C109.491,185.107 144.489,185.107 152.186,185.107C153.014,185.107 153.686,184.436 153.686,183.607C153.686,173.8 153.686,118.917 153.686,109.109Z"/>
            </g>
            <g transform="matrix(1,0,0,1,-8.10308,0)">
                <path d="M165.013,199.444C165.013,199.046 164.855,198.664 164.574,198.383C164.293,198.102 163.911,197.944 163.513,197.944C153.86,197.944 100.576,197.944 90.922,197.944C90.524,197.944 90.142,198.102 89.861,198.383C89.58,198.664 89.422,199.046 89.422,199.444C89.422,204.301 89.422,219.566 89.422,224.423C89.422,224.821 89.58,225.203 89.861,225.484C90.142,225.765 90.524,225.923 90.922,225.923C100.576,225.923 153.86,225.923 163.513,225.923C163.911,225.923 164.293,225.765 164.574,225.484C164.855,225.203 165.013,224.821 165.013,224.423C165.013,219.566 165.013,204.301 165.013,199.444Z"/>
            </g>
            <g transform="matrix(1,0,0,1,-8.10308,0)">
                <path d="M165.013,76.932C165.013,76.104 164.342,75.432 163.513,75.432C153.86,75.432 100.576,75.432 90.922,75.432C90.093,75.432 89.422,76.104 89.422,76.932C89.422,80.459 89.422,89.246 89.422,92.772C89.422,93.601 90.093,94.272 90.922,94.272C100.576,94.272 153.86,94.272 163.513,94.272C164.342,94.272 165.013,93.601 165.013,92.772C165.013,89.246 165.013,80.459 165.013,76.932Z"/>
            </g>
            <g transform="matrix(1,0,0,1,-9.41085,0)">
                <path d="M102.103,22.482C102.271,21.816 102.87,21.349 103.557,21.349C110.468,21.349 145.961,21.349 153.721,21.349C154.119,21.349 154.5,21.507 154.781,21.789C155.063,22.07 155.221,22.451 155.221,22.849C155.221,24.638 155.221,27.608 155.221,29.397C155.221,30.225 154.549,30.897 153.721,30.897C152.127,30.897 149.623,30.897 148.03,30.897C147.201,30.897 146.53,31.568 146.53,32.397C146.53,37.718 146.53,55.66 146.53,60.981C146.53,61.81 145.858,62.481 145.03,62.481C136.429,62.481 93.467,62.481 85.029,62.481C84.225,62.481 83.564,63.116 83.531,63.92C83.061,75.336 79.939,151.156 79.467,162.641C79.433,163.453 78.761,164.09 77.949,164.08C76.972,164.067 75.689,164.051 74.705,164.038C73.881,164.028 73.22,163.354 73.224,162.53C73.297,150.304 73.792,66.707 73.853,56.426C73.857,55.802 74.246,55.246 74.83,55.029C78.548,53.647 91.83,48.709 95.115,47.488C95.577,47.316 95.926,46.928 96.047,46.45C96.976,42.771 100.991,26.881 102.103,22.482Z"/>
            </g>
        </g>
    </g>
</svg>
