<?xml version="1.0" encoding="UTF-8" standalone="no"?>
<!DOCTYPE svg PUBLIC "-//W3C//DTD SVG 1.1//EN" "http://www.w3.org/Graphics/SVG/1.1/DTD/svg11.dtd">
<svg width="100%" height="100%" viewBox="0 0 189 202" version="1.1" xmlns="http://www.w3.org/2000/svg" xmlns:xlink="http://www.w3.org/1999/xlink" xml:space="preserve" xmlns:serif="http://www.serif.com/" style="fill-rule:evenodd;clip-rule:evenodd;stroke-linejoin:round;stroke-miterlimit:2;">
    <g transform="matrix(1,0,0,1,-33.5329,-27.3088)">
        <g>
            <path d="M159.687,110.459C159.273,111.176 159.519,112.093 160.236,112.508C164.984,115.249 181.277,124.656 184.336,126.421C184.657,126.607 184.899,126.905 185.014,127.258C191.5,147.41 189.779,170.122 178.371,189.881C156.952,226.98 109.442,239.71 72.343,218.291C35.244,196.872 22.514,149.362 43.933,112.263C55.341,92.504 74.15,79.657 94.845,75.201C95.208,75.123 95.587,75.183 95.908,75.369C98.967,77.134 115.26,86.541 120.008,89.282C120.725,89.696 121.643,89.45 122.057,88.733C124.735,84.094 133.772,68.442 135.713,65.08C135.945,64.677 135.978,64.189 135.8,63.758C134.254,60.008 126.806,41.941 125.26,38.191C125.082,37.761 125.115,37.272 125.348,36.869C126.298,35.224 128.842,30.816 130.117,28.608C130.316,28.263 130.644,28.012 131.028,27.909C131.412,27.806 131.822,27.86 132.166,28.059C140.709,32.991 188.487,60.576 188.487,60.576C188.487,60.576 217.936,75.304 221.142,99.925C224.144,122.976 224.058,156.409 198.631,211.052C198.454,211.434 198.125,211.724 197.724,211.851C197.322,211.978 196.886,211.931 196.522,211.72C194.225,210.395 189.73,207.8 187.59,206.565C186.916,206.175 186.652,205.333 186.984,204.628C190.616,196.67 209.938,152.35 206.124,118.025C203.763,96.78 192.579,90.287 177.937,81.848C177.22,81.434 176.303,81.68 175.889,82.397C172.997,87.406 162.58,105.448 159.687,110.459Z"/>
        </g>
    </g>
</svg>
