<?xml version="1.0" encoding="UTF-8" standalone="no"?>
<!DOCTYPE svg PUBLIC "-//W3C//DTD SVG 1.1//EN" "http://www.w3.org/Graphics/SVG/1.1/DTD/svg11.dtd">
<svg width="100%" height="100%" viewBox="0 0 193 193" version="1.1" xmlns="http://www.w3.org/2000/svg" xmlns:xlink="http://www.w3.org/1999/xlink" xml:space="preserve" xmlns:serif="http://www.serif.com/" style="fill-rule:evenodd;clip-rule:evenodd;stroke-linejoin:round;stroke-miterlimit:2;">
    <g transform="matrix(1,0,0,1,-1335.77,-156.843)">
        <g transform="matrix(0.856959,0,0,0.856959,798.92,-163.941)">
            <g transform="matrix(0.872279,0,0,0.872279,567.482,39.1289)">
                <path d="M278.108,503.29C278.495,503.29 278.863,503.122 279.118,502.83C279.372,502.538 279.487,502.151 279.434,501.767C278.807,497.369 277.838,493.081 276.554,488.931C268.213,461.976 246.572,440.842 219.314,433.211C218.735,433.05 218.334,432.524 218.334,431.923C218.333,428.985 218.333,420.483 218.333,416.854C218.333,416.446 218.519,416.061 218.838,415.807C219.157,415.553 219.574,415.459 219.972,415.55C256.469,424.162 285.329,452.645 294.481,488.931C295.562,493.218 296.368,497.615 296.879,502.1C296.955,502.777 297.527,503.289 298.208,503.289C301.179,503.29 308.796,503.29 311.105,503.29C311.528,503.29 311.926,503.49 312.179,503.83C313.82,506.04 320.074,514.466 323.045,518.468C323.346,518.874 323.393,519.415 323.166,519.867C322.939,520.318 322.477,520.603 321.971,520.603C311.052,520.603 269.967,520.603 264.204,520.603C263.781,520.603 263.383,520.403 263.13,520.063C261.489,517.852 255.235,509.427 252.264,505.425C251.963,505.019 251.916,504.478 252.143,504.026C252.37,503.574 252.833,503.29 253.338,503.29C259.271,503.29 273.433,503.29 278.108,503.29ZM96.379,521.836C96.325,521.14 95.744,520.604 95.046,520.604C91.882,520.603 83.592,520.603 81.172,520.603C80.749,520.603 80.351,520.403 80.099,520.064C78.456,517.856 72.186,509.429 69.207,505.426C68.905,505.02 68.858,504.479 69.085,504.027C69.312,503.575 69.775,503.29 70.28,503.29C81.201,503.29 122.255,503.29 128.011,503.29C128.434,503.29 128.832,503.489 129.085,503.829C130.728,506.037 136.998,514.464 139.976,518.467C140.278,518.873 140.325,519.414 140.098,519.866C139.871,520.318 139.409,520.603 138.903,520.603C133.115,520.603 119.548,520.603 115.066,520.603C114.688,520.603 114.328,520.763 114.075,521.042C113.821,521.322 113.698,521.696 113.734,522.071C114.181,526.498 114.974,530.823 116.086,535.019C123.371,562.511 144.345,584.457 171.257,593.105C171.812,593.281 172.188,593.796 172.188,594.379C172.19,597.285 172.19,605.888 172.19,609.593C172.19,610.008 171.997,610.4 171.668,610.653C171.339,610.906 170.911,610.993 170.51,610.886C134.407,601.14 106.307,571.811 98.332,535.019C97.4,530.72 96.742,526.32 96.379,521.836ZM186.642,432.266C186.642,431.88 186.475,431.512 186.184,431.258C185.893,431.004 185.506,430.888 185.123,430.941C180.691,431.562 176.371,432.531 172.19,433.821C146.223,441.828 125.646,462.174 117.319,487.999C117.142,488.553 116.628,488.929 116.046,488.929C113.14,488.931 104.534,488.931 100.828,488.931C100.412,488.931 100.02,488.738 99.767,488.409C99.514,488.08 99.428,487.651 99.534,487.25C109.019,452.235 136.926,424.761 172.19,415.898C176.507,414.813 180.934,414.007 185.45,413.5C186.128,413.426 186.642,412.853 186.642,412.171C186.642,408.96 186.642,400.262 186.642,397.776C186.642,397.353 186.842,396.955 187.181,396.703C189.382,395.066 197.753,388.837 201.741,385.87C202.147,385.568 202.688,385.52 203.14,385.747C203.592,385.975 203.877,386.437 203.877,386.943C203.877,402.047 203.877,476.662 203.877,487.593C203.877,487.948 203.736,488.288 203.485,488.539C203.234,488.79 202.894,488.931 202.539,488.931C197.064,488.931 176.468,488.931 172.641,488.931C172.252,488.931 171.881,489.101 171.627,489.396C170.625,490.562 167.994,493.62 166.703,495.122C166.278,495.616 166.271,496.346 166.688,496.848C167.973,498.398 170.619,501.59 171.626,502.805C171.88,503.112 172.258,503.29 172.656,503.29C178.823,503.29 228.408,503.29 234.779,503.29C235.202,503.29 235.601,503.49 235.853,503.83C238.22,507.018 250.352,523.362 253.183,527.176C253.534,527.649 253.535,528.296 253.184,528.769C250.297,532.669 237.704,549.68 235.289,552.941C235.037,553.282 234.638,553.483 234.214,553.483C230.307,553.483 210.563,553.483 205.215,553.483C204.86,553.483 204.52,553.624 204.269,553.875C204.018,554.126 203.877,554.466 203.877,554.821C203.877,561.218 203.877,588.65 203.877,595.324C203.877,595.701 204.037,596.061 204.317,596.315C204.597,596.569 204.971,596.692 205.347,596.655C209.787,596.201 214.125,595.4 218.333,594.277C246.821,586.677 269.333,564.372 277.225,536.003C277.385,535.423 277.912,535.021 278.514,535.021C281.452,535.019 289.951,535.019 293.576,535.019C293.984,535.019 294.369,535.205 294.623,535.524C294.877,535.842 294.972,536.259 294.88,536.656C286.063,574.263 256.153,603.786 218.333,612.038C214.021,612.979 209.606,613.644 205.109,614.012C204.413,614.067 203.877,614.648 203.877,615.345C203.877,618.284 203.877,625.595 203.877,627.85C203.877,628.273 203.677,628.672 203.337,628.924C201.134,630.559 192.763,636.773 188.777,639.732C188.371,640.034 187.83,640.08 187.378,639.853C186.927,639.626 186.642,639.164 186.642,638.658C186.642,623.412 186.642,547.397 186.642,536.357C186.642,536.002 186.783,535.662 187.034,535.411C187.285,535.16 187.625,535.019 187.98,535.019C193.653,535.019 215.617,535.019 219.607,535.019C220.002,535.019 220.377,534.845 220.631,534.542C221.621,533.364 224.19,530.305 225.443,528.814C225.854,528.325 225.861,527.613 225.461,527.115C224.216,525.566 221.627,522.342 220.632,521.103C220.378,520.787 219.994,520.603 219.589,520.603C213.367,520.603 163.84,520.603 157.478,520.603C157.055,520.603 156.657,520.403 156.404,520.064C154.038,516.884 141.909,500.583 139.076,496.775C138.724,496.302 138.723,495.654 139.074,495.18C141.962,491.279 154.554,474.27 156.968,471.009C157.22,470.668 157.619,470.467 158.043,470.467C161.8,470.467 180.166,470.467 185.304,470.467C185.659,470.467 185.999,470.326 186.25,470.076C186.501,469.825 186.642,469.484 186.642,469.13C186.642,463.121 186.642,438.641 186.642,432.266ZM218.333,471.805C218.333,471.066 218.932,470.467 219.67,470.467C224.763,470.467 243.029,470.467 250.527,470.467C251.069,470.467 251.558,470.794 251.764,471.296C251.971,471.797 251.854,472.373 251.47,472.755C247.04,477.151 237.595,486.524 235.561,488.543C235.311,488.791 234.972,488.931 234.619,488.931C232.279,488.931 223.133,488.931 219.67,488.931C218.932,488.931 218.333,488.332 218.333,487.593C218.333,484.186 218.333,475.212 218.333,471.805ZM156.555,535.411C156.806,535.16 157.146,535.019 157.501,535.019C159.674,535.019 167.655,535.019 170.852,535.019C171.207,535.019 171.547,535.16 171.798,535.411C172.049,535.662 172.19,536.002 172.19,536.357C172.19,539.764 172.19,548.738 172.19,552.145C172.19,552.5 172.049,552.84 171.798,553.091C171.547,553.342 171.207,553.483 170.852,553.483L141.713,553.483C141.172,553.483 140.684,553.157 140.477,552.657C140.27,552.157 140.384,551.582 140.767,551.199C145.159,546.807 154.528,537.438 156.555,535.411Z" style="fill:rgb(230,179,82);"/>
            </g>
        </g>
    </g>
</svg>
