<?xml version="1.0" encoding="UTF-8" standalone="no"?>
<!DOCTYPE svg PUBLIC "-//W3C//DTD SVG 1.1//EN" "http://www.w3.org/Graphics/SVG/1.1/DTD/svg11.dtd">
<svg width="100%" height="100%" viewBox="0 0 258 258" version="1.1" xmlns="http://www.w3.org/2000/svg"
  xmlns:xlink="http://www.w3.org/1999/xlink" xml:space="preserve" xmlns:serif="http://www.serif.com/"
  style="fill-rule:evenodd;clip-rule:evenodd;stroke-linejoin:round;stroke-miterlimit:2;">
  <g transform="matrix(1,0,0,1,-446.162,-155.782)">
    <g transform="matrix(1.15828,0,0,1.15828,193.966,-463.456)">
      <g transform="matrix(0.863353,0,0,0.863353,159.356,202.851)">
        <path
          d="M278.496,503.29C278.785,503.29 279.06,503.165 279.249,502.948C279.439,502.73 279.526,502.442 279.488,502.156C278.864,497.622 277.876,493.203 276.554,488.931C268.187,461.895 246.442,440.715 219.069,433.142C218.635,433.023 218.334,432.629 218.334,432.179C218.333,429.408 218.333,419.869 218.333,416.43C218.333,416.125 218.471,415.837 218.709,415.648C218.947,415.458 219.258,415.387 219.555,415.454C256.249,423.945 285.294,452.507 294.481,488.931C295.586,493.313 296.404,497.809 296.913,502.398C296.968,502.905 297.397,503.289 297.907,503.289C300.693,503.29 309.125,503.29 311.275,503.29C311.591,503.29 311.889,503.439 312.078,503.693C313.612,505.76 320.621,515.202 323.445,519.007C323.671,519.311 323.706,519.715 323.536,520.053C323.366,520.39 323.02,520.603 322.642,520.603C312.763,520.603 269.209,520.603 264.034,520.603C263.718,520.603 263.42,520.453 263.231,520.199C261.697,518.133 254.688,508.691 251.864,504.886C251.638,504.582 251.603,504.178 251.773,503.84C251.943,503.503 252.289,503.29 252.667,503.29C258.277,503.29 274.111,503.29 278.496,503.29ZM96.355,521.527C96.315,521.006 95.881,520.603 95.358,520.603C92.397,520.603 83.25,520.603 81.002,520.603C80.686,520.603 80.389,520.454 80.2,520.2C78.664,518.135 71.638,508.693 68.806,504.886C68.58,504.583 68.545,504.178 68.714,503.841C68.884,503.503 69.23,503.29 69.608,503.29C79.49,503.29 123.012,503.29 128.181,503.29C128.497,503.29 128.795,503.439 128.983,503.693C130.52,505.757 137.546,515.2 140.378,519.006C140.603,519.31 140.639,519.714 140.469,520.052C140.299,520.39 139.953,520.603 139.575,520.603C134.093,520.603 118.902,520.603 114.693,520.603C114.412,520.603 114.143,520.722 113.954,520.93C113.764,521.138 113.671,521.416 113.697,521.697C114.137,526.254 114.943,530.705 116.086,535.019C123.392,562.591 144.467,584.584 171.49,593.18C171.906,593.311 172.189,593.697 172.189,594.133C172.19,596.872 172.19,606.521 172.19,610.031C172.19,610.341 172.046,610.634 171.801,610.823C171.556,611.013 171.237,611.078 170.937,610.999C134.629,601.371 106.338,571.956 98.332,535.019C97.378,530.622 96.712,526.118 96.355,521.527ZM186.642,431.879C186.642,431.591 186.518,431.317 186.301,431.127C186.084,430.937 185.796,430.85 185.51,430.888C180.943,431.506 176.492,432.494 172.19,433.821C146.145,441.852 125.522,462.296 117.244,488.233C117.113,488.648 116.727,488.93 116.292,488.93C113.553,488.931 103.901,488.931 100.389,488.931C100.079,488.931 99.786,488.787 99.597,488.542C99.408,488.296 99.343,487.977 99.421,487.677C108.792,452.459 136.783,424.797 172.19,415.898C176.602,414.79 181.128,413.972 185.749,413.467C186.257,413.413 186.642,412.984 186.642,412.473C186.642,409.478 186.642,399.91 186.642,397.606C186.642,397.29 186.791,396.993 187.045,396.804C189.103,395.273 198.488,388.29 202.28,385.468C202.583,385.243 202.988,385.207 203.326,385.377C203.664,385.547 203.877,385.892 203.877,386.271C203.877,399.813 203.877,478.161 203.877,487.931C203.877,488.196 203.772,488.451 203.584,488.638C203.397,488.826 203.142,488.931 202.877,488.931C197.905,488.931 175.944,488.931 172.486,488.931C172.195,488.931 171.918,489.058 171.728,489.279C170.769,490.394 167.764,493.888 166.517,495.338C166.199,495.708 166.194,496.253 166.506,496.628C167.745,498.123 170.765,501.767 171.727,502.928C171.917,503.157 172.2,503.29 172.497,503.29C177.96,503.29 229.304,503.29 234.949,503.29C235.265,503.29 235.563,503.439 235.752,503.693C237.887,506.569 250.773,523.929 253.333,527.377C253.595,527.731 253.595,528.214 253.333,528.568C250.725,532.091 237.364,550.138 235.188,553.078C234.999,553.333 234.701,553.483 234.384,553.483C230.847,553.483 209.742,553.483 204.877,553.483C204.612,553.483 204.358,553.588 204.17,553.776C203.982,553.963 203.877,554.218 203.877,554.483C203.877,560.291 203.877,589.639 203.877,595.696C203.877,595.978 203.996,596.247 204.204,596.436C204.413,596.626 204.691,596.719 204.972,596.692C209.543,596.246 214.007,595.431 218.333,594.277C246.904,586.656 269.463,564.243 277.293,535.757C277.412,535.322 277.807,535.02 278.257,535.02C281.029,535.019 290.564,535.019 294,535.019C294.304,535.019 294.592,535.158 294.782,535.395C294.972,535.633 295.043,535.944 294.976,536.24C286.283,574.045 256.292,603.756 218.333,612.038C213.923,613.001 209.405,613.674 204.8,614.037C204.279,614.077 203.877,614.511 203.877,615.034C203.877,617.798 203.877,625.915 203.877,628.02C203.877,628.337 203.727,628.634 203.473,628.823C201.413,630.352 192.029,637.318 188.238,640.132C187.935,640.358 187.53,640.393 187.193,640.223C186.855,640.053 186.642,639.707 186.642,639.33C186.642,625.665 186.642,545.882 186.642,536.019C186.642,535.467 187.09,535.019 187.642,535.019C192.786,535.019 216.164,535.019 219.764,535.019C220.059,535.019 220.34,534.889 220.53,534.663C221.477,533.535 224.412,530.04 225.621,528.601C225.928,528.236 225.934,527.704 225.635,527.332C224.435,525.838 221.481,522.161 220.53,520.977C220.34,520.741 220.054,520.603 219.751,520.603C214.239,520.603 162.946,520.603 157.308,520.603C156.992,520.603 156.694,520.454 156.506,520.2C154.371,517.331 141.488,500.017 138.926,496.574C138.663,496.22 138.662,495.736 138.925,495.382C141.534,491.857 154.893,473.812 157.069,470.872C157.258,470.618 157.556,470.467 157.873,470.467C161.281,470.467 180.959,470.467 185.642,470.467C185.907,470.467 186.162,470.362 186.349,470.175C186.537,469.987 186.642,469.733 186.642,469.467C186.642,463.993 186.642,437.686 186.642,431.879ZM218.333,471.467C218.333,471.202 218.438,470.948 218.626,470.76C218.813,470.573 219.068,470.467 219.333,470.467C224.069,470.467 244.305,470.467 251.347,470.467C251.752,470.467 252.117,470.712 252.272,471.086C252.426,471.461 252.339,471.892 252.052,472.177C247.863,476.334 237.35,486.768 235.462,488.641C235.275,488.827 235.022,488.931 234.758,488.931C232.598,488.931 222.557,488.931 219.333,488.931C219.067,488.931 218.813,488.826 218.626,488.638C218.438,488.451 218.333,488.196 218.333,487.931C218.333,484.718 218.333,474.68 218.333,471.467ZM156.654,535.312C156.841,535.125 157.095,535.019 157.361,535.019C159.378,535.019 168.194,535.019 171.19,535.019C171.742,535.019 172.19,535.467 172.19,536.019C172.19,539.232 172.19,549.27 172.19,552.483C172.19,553.035 171.742,553.483 171.19,553.483C166.621,553.483 147.665,553.483 140.897,553.483C140.493,553.483 140.128,553.239 139.973,552.866C139.818,552.492 139.904,552.062 140.19,551.776C144.343,547.622 154.773,537.193 156.654,535.312Z"
          style="fill:rgb(64,178,127);" />
      </g>
    </g>
  </g>
</svg>