<?xml version="1.0" encoding="UTF-8" standalone="no"?>
<!DOCTYPE svg PUBLIC "-//W3C//DTD SVG 1.1//EN" "http://www.w3.org/Graphics/SVG/1.1/DTD/svg11.dtd">
<svg width="100%" height="100%" viewBox="0 0 183 211" version="1.1" xmlns="http://www.w3.org/2000/svg" xmlns:xlink="http://www.w3.org/1999/xlink" xml:space="preserve" xmlns:serif="http://www.serif.com/" style="fill-rule:evenodd;clip-rule:evenodd;stroke-linejoin:round;stroke-miterlimit:2;">
    <g transform="matrix(1,0,0,1,-36.6457,-22.6082)">
        <g transform="matrix(0.866025,0.5,-0.5,0.866025,73.1318,-52.5147)">
            <g transform="matrix(0.947233,0,0,1,4.98429,0)">
                <path d="M156.043,241.225L99.957,241.225C99.957,241.225 94.454,241.922 94.321,232.154C94.188,222.385 94.321,128 94.321,128C94.321,128 92.252,115.773 109.203,102.933L112.236,54.908L109.132,49.882L112.985,46.636L110.652,42.672L115.076,39.201L140.924,39.201L145.348,42.672L143.015,46.636L146.868,49.882L143.764,54.908L146.797,102.933C163.748,115.773 161.679,128 161.679,128C161.679,128 161.812,222.385 161.679,232.154C161.546,241.922 156.043,241.225 156.043,241.225Z"/>
            </g>
            <g transform="matrix(1,0,0,1,0,-2)">
                <path d="M113.988,39.201C113.988,39.201 113.96,17.213 128,16.282C142.04,15.351 150.996,17.835 176.411,46.07L221.46,93.136L215.141,110.294L204.997,116.353L199.884,111.167L192,116.299L187.879,114.86L140.656,35.715C140.656,35.715 136.216,34.854 136.108,39.201L113.988,39.201Z"/>
            </g>
        </g>
    </g>
</svg>
