<?xml version="1.0" encoding="UTF-8" standalone="no"?>
<!DOCTYPE svg PUBLIC "-//W3C//DTD SVG 1.1//EN" "http://www.w3.org/Graphics/SVG/1.1/DTD/svg11.dtd">
<svg width="100%" height="100%" viewBox="0 0 217 145" version="1.1" xmlns="http://www.w3.org/2000/svg" xmlns:xlink="http://www.w3.org/1999/xlink" xml:space="preserve" xmlns:serif="http://www.serif.com/" style="fill-rule:evenodd;clip-rule:evenodd;stroke-linejoin:round;stroke-miterlimit:2;">
    <g transform="matrix(1,0,0,1,-19.6695,-55.8378)">
        <g>
            <path d="M27.669,192.162L27.669,141.039C27.669,120.564 35.803,100.928 50.281,86.45C64.759,71.972 84.396,63.838 104.871,63.838L112.172,63.838C112.172,67.57 112.172,71.683 112.172,75.156C101.473,78.552 93.736,88.545 93.736,100.347L93.736,160.357C93.736,172.167 101.483,182.165 112.17,185.557C112.171,187.654 112.172,189.952 112.172,192.162L27.669,192.162Z" style="fill:rgb(235,93,112);"/>
            <g transform="matrix(1.69266,0,0,1.69266,-88.6611,-53.2992)">
                <path d="M64.702,149.741C64.516,149.741 64.337,149.667 64.206,149.535C64.074,149.404 64,149.225 64,149.039L64,114.812C64,101.462 69.303,88.659 78.743,79.219C88.183,69.78 100.986,64.476 114.336,64.476L122.673,64.476C122.86,64.476 123.038,64.55 123.17,64.682C123.302,64.814 123.376,64.993 123.376,65.179L123.376,66.078C123.376,69.988 123.375,76.361 123.375,79.204C123.375,79.578 123.082,79.886 122.708,79.905C117.004,80.246 112.484,84.981 112.484,90.772L112.484,126.225C112.484,132.015 117.004,136.751 122.708,137.095C123.08,137.114 123.372,137.421 123.372,137.793C123.375,140.11 123.376,144.969 123.376,148.139L123.376,149.039C123.376,149.225 123.302,149.404 123.17,149.535C123.038,149.667 122.86,149.741 122.673,149.741L64.702,149.741ZM68.726,145.015L118.649,145.015C118.649,143.709 118.649,142.351 118.648,141.112C112.334,139.109 107.757,133.202 107.757,126.225L107.757,90.772C107.757,83.799 112.328,77.895 118.649,75.889C118.649,73.838 118.649,71.408 118.649,69.203L114.336,69.203C102.239,69.203 90.638,74.008 82.085,82.561C73.532,91.115 68.726,102.716 68.726,114.812L68.726,145.015Z" style="fill-opacity:0;"/>
            </g>
            <g transform="matrix(1.69266,0,0,1.69266,-88.6611,-53.2992)">
                <path d="M133.694,91.112C134.229,91.112 134.662,91.546 134.662,92.081L134.662,124.292C134.662,124.827 134.229,125.261 133.694,125.261L122.306,125.261C121.771,125.261 121.338,124.827 121.338,124.292L121.338,92.081C121.338,91.546 121.771,91.112 122.306,91.112L133.694,91.112Z" style="fill-opacity:0;"/>
            </g>
            <g transform="matrix(1.69266,0,0,1.69266,-88.6611,-53.2992)">
                <path d="M141.664,64.476C155.014,64.476 167.817,69.78 177.257,79.219C186.697,88.659 192,101.462 192,114.812L192,149.039C192,149.225 191.926,149.404 191.794,149.535C191.663,149.667 191.484,149.741 191.298,149.741L133.327,149.741C133.14,149.741 132.962,149.667 132.83,149.535C132.698,149.404 132.624,149.225 132.624,149.039L132.624,148.139C132.624,144.969 132.625,140.11 132.625,137.793C132.625,137.419 132.918,137.111 133.292,137.092C138.996,136.751 143.516,132.015 143.516,126.225L143.516,90.772C143.516,84.981 138.996,80.246 133.292,79.902C132.92,79.883 132.628,79.576 132.628,79.204C132.625,76.361 132.624,69.988 132.624,66.078L132.624,65.179C132.624,64.993 132.698,64.814 132.83,64.682C132.962,64.55 133.14,64.476 133.327,64.476L141.664,64.476Z" style="fill-opacity:0;"/>
            </g>
        </g>
    </g>
</svg>
