<?xml version="1.0" encoding="UTF-8" standalone="no"?>
<!DOCTYPE svg PUBLIC "-//W3C//DTD SVG 1.1//EN" "http://www.w3.org/Graphics/SVG/1.1/DTD/svg11.dtd">
<svg width="100%" height="100%" viewBox="0 0 217 145" version="1.1" xmlns="http://www.w3.org/2000/svg" xmlns:xlink="http://www.w3.org/1999/xlink" xml:space="preserve" xmlns:serif="http://www.serif.com/" style="fill-rule:evenodd;clip-rule:evenodd;stroke-linecap:round;stroke-miterlimit:12;">
    <g transform="matrix(1,0,0,1,-19.6695,-55.8378)">
        <g>
            <g transform="matrix(1.69266,0,0,1.69266,-88.6611,-53.2992)">
                <g transform="matrix(0.590784,-0,-0,0.590784,64,64.4765)">
                </g>
            </g>
            <g transform="matrix(1.69266,0,0,1.69266,-88.6611,-53.2992)">
                <path d="M133.694,91.112C134.229,91.112 134.662,91.546 134.662,92.081L134.662,124.292C134.662,124.827 134.229,125.261 133.694,125.261L122.306,125.261C121.771,125.261 121.338,124.827 121.338,124.292L121.338,92.081C121.338,91.546 121.771,91.112 122.306,91.112L133.694,91.112Z" style="fill-opacity:0;"/>
            </g>
            <path d="M143.828,192.162C143.828,189.952 143.828,187.652 143.828,185.554C154.517,182.166 162.264,172.167 162.264,160.357L162.264,100.347C162.264,88.538 154.518,78.54 143.83,75.148C143.829,71.678 143.828,67.568 143.828,63.838L151.129,63.838C171.604,63.838 191.241,71.972 205.719,86.45C220.197,100.928 228.331,120.564 228.331,141.039L228.331,192.162L143.828,192.162Z" style="fill:rgb(235,93,112);"/>
            <g transform="matrix(1.69266,0,0,1.69266,-88.6611,-53.2992)">
                <path d="M141.664,64.476C155.014,64.476 167.817,69.78 177.257,79.219C186.697,88.659 192,101.462 192,114.812L192,149.039C192,149.225 191.926,149.404 191.794,149.535C191.663,149.667 191.484,149.741 191.298,149.741L133.327,149.741C133.14,149.741 132.962,149.667 132.83,149.535C132.698,149.404 132.624,149.225 132.624,149.039L132.624,148.139C132.624,144.969 132.625,140.11 132.625,137.793C132.625,137.419 132.918,137.111 133.292,137.092C138.996,136.751 143.516,132.015 143.516,126.225L143.516,90.772C143.516,84.981 138.996,80.246 133.292,79.902C132.92,79.883 132.628,79.576 132.628,79.204C132.625,76.361 132.624,69.988 132.624,66.078L132.624,65.179C132.624,64.993 132.698,64.814 132.83,64.682C132.962,64.55 133.14,64.476 133.327,64.476L141.664,64.476ZM137.351,145.015L187.274,145.015L187.274,114.812C187.274,102.716 182.468,91.115 173.915,82.561C165.362,74.008 153.761,69.203 141.664,69.203L137.351,69.203C137.351,71.406 137.351,73.834 137.352,75.885C143.666,77.888 148.243,83.795 148.243,90.772L148.243,126.225C148.243,133.202 143.666,139.109 137.351,141.111C137.351,142.35 137.351,143.709 137.351,145.015Z" style="fill-opacity:0;"/>
            </g>
        </g>
    </g>
</svg>
