<?xml version="1.0" encoding="UTF-8" standalone="no"?>
<!DOCTYPE svg PUBLIC "-//W3C//DTD SVG 1.1//EN" "http://www.w3.org/Graphics/SVG/1.1/DTD/svg11.dtd">
<svg width="100%" height="100%" viewBox="0 0 217 145" version="1.1" xmlns="http://www.w3.org/2000/svg" xmlns:xlink="http://www.w3.org/1999/xlink" xml:space="preserve" xmlns:serif="http://www.serif.com/" style="fill-rule:evenodd;clip-rule:evenodd;stroke-linejoin:round;stroke-miterlimit:2;fill:currentColor">
    <g transform="matrix(1,0,0,1,-19.6695,-55.8378)">
        <g transform="matrix(1.69266,0,0,1.69266,-88.6611,-53.2992)">
            <path d="M64.702,149.741C64.516,149.741 64.337,149.667 64.206,149.535C64.074,149.404 64,149.225 64,149.039L64,114.812C64,101.462 69.303,88.659 78.743,79.219C88.183,69.78 100.986,64.476 114.336,64.476L122.673,64.476C122.86,64.476 123.038,64.55 123.17,64.682C123.302,64.814 123.376,64.993 123.376,65.179C123.376,65.609 123.376,66.078 123.376,66.078C123.376,69.988 123.375,76.361 123.375,79.204C123.375,79.578 123.082,79.886 122.708,79.905C117.004,80.246 112.484,84.981 112.484,90.772L112.484,126.225C112.484,132.015 117.004,136.751 122.708,137.095C123.08,137.114 123.372,137.421 123.372,137.793C123.375,140.11 123.376,144.969 123.376,148.139L123.376,149.039C123.376,149.225 123.302,149.404 123.17,149.535C123.038,149.667 122.86,149.741 122.673,149.741C116.456,149.741 70.919,149.741 64.702,149.741ZM133.694,91.112C134.229,91.112 134.662,91.546 134.662,92.081C134.662,97.019 134.662,119.354 134.662,124.292C134.662,124.827 134.229,125.261 133.694,125.261C131.234,125.261 124.766,125.261 122.306,125.261C121.771,125.261 121.338,124.827 121.338,124.292C121.338,119.354 121.338,97.019 121.338,92.081C121.338,91.546 121.771,91.112 122.306,91.112C124.766,91.112 131.234,91.112 133.694,91.112ZM141.664,64.476C155.014,64.476 167.817,69.78 177.257,79.219C186.697,88.659 192,101.462 192,114.812L192,149.039C192,149.225 191.926,149.404 191.794,149.535C191.663,149.667 191.484,149.741 191.298,149.741L133.327,149.741C133.14,149.741 132.962,149.667 132.83,149.535C132.698,149.404 132.624,149.225 132.624,149.039C132.624,148.609 132.624,148.139 132.624,148.139C132.624,144.969 132.625,140.11 132.625,137.793C132.625,137.419 132.918,137.111 133.292,137.092C138.996,136.751 143.516,132.015 143.516,126.225L143.516,90.772C143.516,84.981 138.996,80.246 133.292,79.902C132.92,79.883 132.628,79.576 132.628,79.204C132.625,76.361 132.624,69.988 132.624,66.078C132.624,66.078 132.624,65.609 132.624,65.179C132.624,64.993 132.698,64.814 132.83,64.682C132.962,64.55 133.14,64.476 133.327,64.476C135.451,64.476 141.664,64.476 141.664,64.476Z"/>
        </g>
    </g>
</svg>
