<?xml version="1.0" encoding="UTF-8" standalone="no"?>
<!DOCTYPE svg PUBLIC "-//W3C//DTD SVG 1.1//EN" "http://www.w3.org/Graphics/SVG/1.1/DTD/svg11.dtd">
<svg width="100%" height="100%" viewBox="0 0 156 176" version="1.1" xmlns="http://www.w3.org/2000/svg" xmlns:xlink="http://www.w3.org/1999/xlink" xml:space="preserve" xmlns:serif="http://www.serif.com/" style="fill-rule:evenodd;clip-rule:evenodd;stroke-linejoin:round;stroke-miterlimit:2;">
    <g transform="matrix(1,0,0,1,-47.158,-41.3809)">
        <g>
            <path d="M152.272,87.847C152.725,87.978 153.091,88.315 153.258,88.756C154.931,93.161 163.987,117.008 165.874,121.978C166.084,122.531 166.599,122.909 167.188,122.943C172.4,123.25 196.851,124.687 196.851,124.687C197.944,125.006 199.061,125.333 200.036,125.919C202.003,127.101 203.149,128.792 203.143,131.193C203.137,133.379 202.07,135.081 200.188,136.053C199.302,136.511 198.292,136.694 197.311,136.872C197.311,136.872 162.747,137.559 156.299,137.687C155.679,137.699 155.115,137.329 154.881,136.755C153.875,134.293 151.134,127.587 149.211,122.88C148.956,122.257 148.318,121.88 147.65,121.957C146.981,122.035 146.446,122.548 146.341,123.212C145.014,131.568 142.501,147.395 141.673,152.607C141.605,153.037 141.727,153.476 142.007,153.809C142.288,154.142 142.699,154.336 143.135,154.342C149.935,154.432 174.416,154.755 174.416,154.755C175.698,154.99 177.03,155.234 178.16,155.884C180.936,157.481 182.193,160.332 182.431,163.467C183.663,179.655 184.313,195.885 184.963,212.108C184.939,212.951 184.915,213.832 184.59,214.61C183.819,216.462 182.103,217.162 180.158,217.202C178.283,217.241 176.862,216.224 175.84,214.782C175.304,214.026 174.948,213.153 174.598,212.295C174.598,212.295 166.614,181.482 164.994,175.231C164.826,174.582 164.247,174.123 163.576,174.108C157.715,173.977 130.883,173.376 124.604,173.236C123.85,173.219 123.201,173.764 123.088,174.509C122.092,181.025 117.701,209.77 117.701,209.77C117.11,211.018 116.495,212.315 115.518,213.291C112.851,215.955 108.985,216.785 105.349,216.75C87.835,216.58 70.33,215.852 52.832,215.125C51.825,214.757 50.798,214.383 49.911,213.782C48.233,212.648 47.013,210.931 47.172,208.765C47.348,206.365 48.926,204.814 50.875,203.732C51.976,203.121 53.195,202.745 54.397,202.373C54.397,202.373 90.689,198.324 97.62,197.551C98.291,197.476 98.83,196.962 98.935,196.295C100.009,189.525 105.552,154.553 105.803,152.967C105.809,152.93 105.817,152.893 105.825,152.856C106.167,151.41 113.177,121.792 115.41,112.356C115.54,111.807 115.351,111.232 114.921,110.867C114.491,110.502 113.893,110.409 113.373,110.626C110.204,111.947 105.169,114.046 103.383,114.79C102.968,114.963 102.653,115.313 102.523,115.743C101.04,120.671 91.988,150.748 91.988,150.748C91.508,151.638 91.016,152.549 90.323,153.285C89.048,154.637 87.303,155.403 85.408,154.656C83.399,153.863 82.708,151.774 82.437,149.89C82.26,148.66 82.309,147.404 82.358,146.162C82.358,146.162 87.251,109.916 88.007,104.323C88.068,103.867 88.335,103.465 88.731,103.232C93.358,100.5 122.169,83.492 126.546,80.908C126.902,80.698 127.328,80.644 127.725,80.758C131.231,81.771 148.518,86.763 152.272,87.847Z"/>
            <circle cx="147.151" cy="60.71" r="19.329"/>
        </g>
    </g>
</svg>
