<?xml version="1.0" encoding="UTF-8" standalone="no"?>
<!DOCTYPE svg PUBLIC "-//W3C//DTD SVG 1.1//EN" "http://www.w3.org/Graphics/SVG/1.1/DTD/svg11.dtd">
<svg width="100%" height="100%" viewBox="0 0 82 207" version="1.1" xmlns="http://www.w3.org/2000/svg" xmlns:xlink="http://www.w3.org/1999/xlink" xml:space="preserve" xmlns:serif="http://www.serif.com/" style="fill-rule:evenodd;clip-rule:evenodd;stroke-linejoin:round;stroke-miterlimit:2;">
    <g transform="matrix(1,0,0,1,-87.4144,-24.7493)">
        <g transform="matrix(1,0,0,1,0,-4.90963)">
            <path d="M93.69,97.617C93.726,97.356 93.83,97.11 93.992,96.902C96.272,93.968 113.666,71.592 116.699,67.691C116.983,67.325 117.42,67.111 117.883,67.111C120.321,67.111 128,67.111 128,67.111L128,157.6C128,157.6 115.994,209.749 111.546,229.071C110.639,233.009 106.748,235.498 102.793,234.67C102.765,234.665 102.738,234.659 102.711,234.653C98.757,233.826 96.191,229.99 96.936,226.02C100.805,205.388 111.724,147.172 111.724,147.172L112.964,92.98C112.964,92.98 106.296,102.239 105.022,104.008C104.885,104.199 104.794,104.419 104.758,104.651C104.286,107.649 100.934,128.963 99.319,139.225C98.84,142.271 96.001,144.365 92.949,143.922C92.939,143.921 92.928,143.919 92.918,143.918C89.872,143.476 87.754,140.659 88.174,137.611C89.738,126.27 93.212,101.083 93.69,97.617Z"/>
            <g transform="matrix(-1,0,0,1,256,0)">
                <path d="M93.69,97.617C93.726,97.356 93.83,97.11 93.992,96.902C96.272,93.968 113.666,71.592 116.699,67.691C116.983,67.325 117.42,67.111 117.883,67.111C120.321,67.111 128,67.111 128,67.111L128,157.6C128,157.6 115.994,209.749 111.546,229.071C110.639,233.009 106.748,235.498 102.793,234.67C102.765,234.665 102.738,234.659 102.711,234.653C98.757,233.826 96.191,229.99 96.936,226.02C100.805,205.388 111.724,147.172 111.724,147.172L112.964,92.98C112.964,92.98 106.296,102.239 105.022,104.008C104.885,104.199 104.794,104.419 104.758,104.651C104.286,107.649 100.934,128.963 99.319,139.225C98.84,142.271 96.001,144.365 92.949,143.922C92.939,143.921 92.928,143.919 92.918,143.918C89.872,143.476 87.754,140.659 88.174,137.611C89.738,126.27 93.212,101.083 93.69,97.617Z"/>
            </g>
            <circle cx="128" cy="46.529" r="16.87"/>
        </g>
    </g>
</svg>
