<?xml version="1.0" encoding="UTF-8" standalone="no"?>
<!DOCTYPE svg PUBLIC "-//W3C//DTD SVG 1.1//EN" "http://www.w3.org/Graphics/SVG/1.1/DTD/svg11.dtd">
<svg width="100%" height="100%" viewBox="0 0 79 182" version="1.1" xmlns="http://www.w3.org/2000/svg" xmlns:xlink="http://www.w3.org/1999/xlink" xml:space="preserve" xmlns:serif="http://www.serif.com/" style="fill-rule:evenodd;clip-rule:evenodd;stroke-linejoin:round;stroke-miterlimit:2;">
    <g transform="matrix(1,0,0,1,-90.4158,-36.8276)">
        <g transform="matrix(1,0,0,1,9.31442,-3.14791)">
            <path d="M143.159,116.461C142.695,116.246 142.153,116.284 141.723,116.559C141.292,116.835 141.031,117.311 141.031,117.823C141.031,121.314 141.031,127.741 141.031,130.278C141.031,130.919 141.438,131.489 142.043,131.697C143.592,132.229 146.684,133.293 149.669,134.32C151.528,134.959 153.573,134.747 155.26,133.739C156.947,132.732 158.105,131.032 158.424,129.093C158.434,129.031 158.444,128.968 158.455,128.906C158.942,125.944 157.39,123.02 154.664,121.763C150.971,120.061 145.963,117.753 143.159,116.461Z"/>
            <circle cx="123.389" cy="57.618" r="17.642"/>
            <g transform="matrix(1,0,0,1,-9.31442,3.14791)">
                <path d="M117.611,99.172L117.559,88.353C117.543,84.815 118.958,81.42 121.484,78.942C124.009,76.463 127.43,75.112 130.968,75.196L135.011,75.291C142.083,75.458 147.745,81.211 147.8,88.285L148.111,128.612C148.129,130.91 147.517,133.168 146.341,135.143L145.669,136.271C145.417,136.694 145.389,137.214 145.594,137.662L160.722,170.757C161.094,171.569 161.245,172.466 161.161,173.355L157.685,210.051C157.456,212.467 156.275,214.693 154.402,216.236C152.529,217.78 150.119,218.514 147.703,218.276L147.516,218.258C142.513,217.766 138.849,213.323 139.319,208.318L142.116,178.565C142.186,177.815 142.059,177.061 141.746,176.376L127.8,145.799C130.521,144.568 132.317,141.738 132.09,138.589L130.279,113.469C130.272,113.37 130.287,113.271 130.321,113.178L138.717,90.861C140.211,86.89 138.339,82.445 134.454,80.739L134.385,80.709C132.442,79.855 130.24,79.81 128.264,80.584C126.288,81.358 124.701,82.887 123.854,84.832L117.611,99.172Z"/>
            </g>
            <g transform="matrix(1,0,0,1,-9.31442,3.14791)">
                <path d="M118.51,143.041C119.924,145.275 122.495,146.653 125.289,146.432L125.355,146.427C125.752,146.395 126.138,146.333 126.513,146.242L136.13,167.294C136.91,169.002 137.314,170.859 137.314,172.737L137.314,175.483C137.314,179.306 135.645,182.937 132.744,185.426L105.327,208.946C103.428,210.575 100.935,211.34 98.449,211.055C95.963,210.77 93.708,209.462 92.226,207.445L92.161,207.357C89.453,203.67 89.944,198.537 93.303,195.431L117.05,173.472C117.336,173.208 117.507,172.844 117.529,172.456L118.967,147.154C118.972,147.068 118.969,146.982 118.959,146.896L118.51,143.041Z"/>
            </g>
            <path d="M104.965,113.411C104.935,113.206 104.963,112.996 105.045,112.806L115.644,88.461C116.363,86.809 117.71,85.511 119.388,84.854C121.066,84.197 122.937,84.234 124.587,84.959L124.656,84.989C127.954,86.438 129.544,90.213 128.275,93.585L119.88,115.902C119.784,116.157 119.744,116.431 119.764,116.703L121.575,141.823C121.817,145.183 119.303,148.108 115.946,148.374L115.879,148.379C112.663,148.634 109.8,146.352 109.331,143.159L104.965,113.411Z"/>
        </g>
    </g>
</svg>
