<?xml version="1.0" encoding="UTF-8" standalone="no"?>
<!DOCTYPE svg PUBLIC "-//W3C//DTD SVG 1.1//EN" "http://www.w3.org/Graphics/SVG/1.1/DTD/svg11.dtd">
<svg width="100%" height="100%" viewBox="0 0 34 206" version="1.1" xmlns="http://www.w3.org/2000/svg" xmlns:xlink="http://www.w3.org/1999/xlink" xml:space="preserve" xmlns:serif="http://www.serif.com/" style="fill-rule:evenodd;clip-rule:evenodd;stroke-linejoin:round;stroke-miterlimit:2;">
    <g transform="matrix(1,0,0,1,-111.13,-25.4149)">
        <g transform="matrix(1,0,0,1,70.4216,0.66566)">
            <g transform="matrix(1,0,0,1.11175,3.19936,-25.6927)">
                <path d="M66.013,148.524L48.807,148.524L48.807,222.182C48.807,224.234 49.714,226.202 51.327,227.653C52.94,229.104 55.128,229.919 57.409,229.919C57.41,229.919 57.411,229.919 57.411,229.919C59.693,229.919 61.881,229.104 63.494,227.653C65.107,226.202 66.013,224.234 66.013,222.182C66.013,201.86 66.013,148.524 66.013,148.524Z"/>
            </g>
            <g transform="matrix(1,0,0,0.902917,0,6.03869)">
                <path d="M73.39,73.489C73.39,70.495 72.316,67.624 70.405,65.507C68.493,63.391 65.901,62.202 63.198,62.202C60.307,62.202 57.159,62.202 54.267,62.202C51.564,62.202 48.972,63.391 47.061,65.507C45.15,67.624 44.076,70.495 44.076,73.489C44.076,90.425 44.076,122.284 44.076,139.743C44.076,146.484 49.01,151.949 55.097,151.949L64.597,151.949C66.929,151.949 69.166,150.923 70.814,149.097C72.463,147.271 73.39,144.794 73.39,142.211C73.39,125.455 73.39,91.258 73.39,73.489Z"/>
            </g>
            <g transform="matrix(1,0,0,1,-70.4216,-4.90963)">
                <circle cx="128" cy="46.529" r="16.87"/>
            </g>
            <path d="M74.448,224.871C74.448,223.539 73.919,222.263 72.978,221.321C72.037,220.38 70.76,219.851 69.429,219.851C62.814,219.851 52.007,219.851 52.007,219.851L52.007,228.421C52.007,228.819 52.165,229.2 52.445,229.481C52.726,229.762 53.107,229.919 53.505,229.919C56.702,229.919 64.317,229.919 69.429,229.919C70.76,229.919 72.037,229.391 72.978,228.449C73.919,227.508 74.448,226.231 74.448,224.9C74.448,224.89 74.448,224.88 74.448,224.871Z"/>
        </g>
    </g>
</svg>
