<?xml version="1.0" encoding="UTF-8" standalone="no"?>
<!DOCTYPE svg PUBLIC "-//W3C//DTD SVG 1.1//EN" "http://www.w3.org/Graphics/SVG/1.1/DTD/svg11.dtd">
<svg width="100%" height="100%" viewBox="0 0 182 196" version="1.1" xmlns="http://www.w3.org/2000/svg" xmlns:xlink="http://www.w3.org/1999/xlink" xml:space="preserve" xmlns:serif="http://www.serif.com/" style="fill-rule:evenodd;clip-rule:evenodd;stroke-linejoin:round;stroke-miterlimit:2;">
    <g transform="matrix(1,0,0,1,-37.2749,-30.3178)">
        <g transform="matrix(1,0,0,1,-0.071138,1.16277)">
            <path d="M112.095,56.311C112.45,56.047 112.904,55.953 113.335,56.054C118.235,57.209 148.088,64.246 152.519,65.291C152.882,65.376 153.222,65.538 153.517,65.764C155.869,67.568 166.782,75.939 169.578,78.083C170.007,78.412 170.345,78.845 170.56,79.34C172.408,83.594 181.5,104.522 183.456,109.024C183.684,109.547 184.188,109.896 184.758,109.924C188.753,110.122 204.64,110.909 213.224,111.334C216.342,111.489 218.786,114.068 218.773,117.189C218.773,117.29 218.772,117.391 218.772,117.492C218.759,120.641 216.25,123.213 213.102,123.303C202.12,123.619 178.521,124.297 173.525,124.441C172.949,124.457 172.415,124.143 172.15,123.632C170.438,120.331 164.111,108.13 161.439,102.979C161.191,102.502 160.708,102.194 160.171,102.171C159.634,102.148 159.126,102.414 158.839,102.868C154.871,109.144 143.623,126.935 140.623,131.68C140.204,132.343 140.366,133.218 140.996,133.686C146.329,137.65 169.17,154.63 174.328,158.464C174.924,158.907 175.106,159.72 174.756,160.375C171.119,167.173 152.179,202.573 144.097,217.678C142.049,221.507 137.352,223.049 133.432,221.181C133.367,221.15 133.301,221.119 133.236,221.088C129.372,219.246 127.598,214.723 129.179,210.745C134.185,198.155 144.33,172.643 146.554,167.051C146.81,166.406 146.591,165.67 146.023,165.271C140.924,161.68 116.962,144.806 105.409,136.671C101.938,134.226 101.07,129.448 103.462,125.939C111.582,114.023 128.751,88.829 133.448,81.937C133.724,81.532 133.785,81.018 133.611,80.56C133.437,80.102 133.05,79.757 132.575,79.638C128.359,78.576 119.012,76.223 116.623,75.621C116.26,75.53 115.875,75.578 115.545,75.755C112.311,77.498 94.588,87.045 85.614,91.879C82.677,93.461 79.017,92.504 77.23,89.688C77.219,89.67 77.207,89.651 77.195,89.633C75.412,86.823 76.098,83.114 78.766,81.127C88.137,74.15 108.466,59.014 112.095,56.311Z"/>
            <path d="M96.981,144.19C97.228,143.815 97.63,143.571 98.076,143.524C98.523,143.477 98.967,143.633 99.286,143.948C102.341,146.962 109.916,154.435 112.522,157.006C113.041,157.518 113.117,158.329 112.701,158.928C110.206,162.528 101.954,174.433 99.883,177.421C99.587,177.847 99.093,178.09 98.576,178.065C93.006,177.788 60.907,176.195 45.541,175.432C43.369,175.324 41.33,174.357 39.873,172.744C38.416,171.13 37.661,169.003 37.775,166.832C37.775,166.826 37.776,166.821 37.776,166.815C37.999,162.552 41.462,159.177 45.729,159.063C58.274,158.728 82.483,158.082 87.129,157.958C87.619,157.945 88.071,157.693 88.341,157.284C89.836,155.019 94.825,147.456 96.981,144.19Z"/>
            <circle cx="177.225" cy="47.078" r="17.923"/>
        </g>
    </g>
</svg>
