<?xml version="1.0" encoding="UTF-8" standalone="no"?>
<!DOCTYPE svg PUBLIC "-//W3C//DTD SVG 1.1//EN" "http://www.w3.org/Graphics/SVG/1.1/DTD/svg11.dtd">
<svg width="100%" height="100%" viewBox="0 0 132 219" version="1.1" xmlns="http://www.w3.org/2000/svg" xmlns:xlink="http://www.w3.org/1999/xlink" xml:space="preserve" xmlns:serif="http://www.serif.com/" style="fill-rule:evenodd;clip-rule:evenodd;stroke-linejoin:round;stroke-miterlimit:2;">
    <g transform="matrix(1,0,0,1,-62.3421,-18.6643)">
        <g transform="matrix(1,0,0,1,0.394475,1.0147)">
            <path d="M128,50.093C128,50.093 153.808,73.728 158.234,77.782C158.631,78.145 159.193,78.268 159.706,78.104C164.122,76.686 184.682,70.088 184.682,70.088C184.682,70.088 191.547,68.371 192.965,72.066C194.383,75.76 190.289,78.321 190.289,78.321C190.289,78.321 164.742,91.481 157.665,95.126C156.575,95.688 155.255,95.542 154.315,94.756C150.808,91.827 142.332,84.747 139.109,82.055C138.784,81.784 138.359,81.662 137.939,81.721C137.519,81.78 137.144,82.014 136.906,82.365C133.063,88.03 118.466,109.55 114.93,114.764C114.492,115.409 114.622,116.283 115.229,116.773C120.364,120.914 142.146,138.483 142.146,138.483C142.146,138.483 146.922,144.182 144.806,148.543C142.69,152.904 113.466,201.757 113.466,201.757C113.466,201.757 109.343,206.533 104.347,203.065C99.351,199.597 102.64,190.189 102.64,190.189C102.64,190.189 118.611,154.399 121.311,148.348C121.547,147.82 121.458,147.204 121.083,146.764C119.369,144.752 114.651,139.214 114.651,139.214C114.651,139.214 115.448,140.957 116.34,142.908C117.741,145.97 116.725,149.595 113.938,151.484C101.774,159.726 70.836,180.691 70.836,180.691C70.836,180.691 64.36,182.334 62.297,178.272C60.234,174.209 67.974,167.185 67.974,167.185C67.974,167.185 91.37,147.296 96.586,142.862C97.169,142.367 97.286,141.513 96.858,140.88C93.562,135.996 80.537,116.696 80.537,116.696C80.537,116.696 79.602,109.143 85.578,101.096C91.555,93.049 120.397,53.015 120.397,53.015C120.397,53.015 125.564,48.422 128,50.093Z"/>
            <circle cx="153.784" cy="34.497" r="16.847"/>
            <path d="M76.14,205.327C76.14,204.775 75.692,204.327 75.14,204.327C74.707,204.327 74.202,204.327 73.769,204.327C73.216,204.327 72.769,204.775 72.769,205.327C72.769,209.368 72.769,224.467 72.769,228.508C72.769,229.061 73.216,229.508 73.769,229.508C74.202,229.508 74.707,229.508 75.14,229.508C75.692,229.508 76.14,229.061 76.14,228.508C76.14,224.467 76.14,209.368 76.14,205.327Z"/>
            <path d="M102.016,213.372C102.016,212.819 101.568,212.372 101.016,212.372C100.52,212.372 99.922,212.372 99.426,212.372C98.873,212.372 98.426,212.819 98.426,213.372C98.426,217.27 98.426,231.423 98.426,235.321C98.426,235.873 98.873,236.321 99.426,236.321C99.922,236.321 100.52,236.321 101.016,236.321C101.568,236.321 102.016,235.873 102.016,235.321C102.016,231.423 102.016,217.27 102.016,213.372Z"/>
            <path d="M127.606,209.79C127.606,209.238 127.158,208.79 126.606,208.79C126.157,208.79 125.629,208.79 125.18,208.79C124.628,208.79 124.18,209.238 124.18,209.79C124.18,214.094 124.18,231.017 124.18,235.321C124.18,235.873 124.628,236.321 125.18,236.321C125.629,236.321 126.157,236.321 126.606,236.321C127.158,236.321 127.606,235.873 127.606,235.321C127.606,231.017 127.606,214.094 127.606,209.79Z"/>
        </g>
    </g>
</svg>
