<?xml version="1.0" encoding="UTF-8" standalone="no"?>
<!DOCTYPE svg PUBLIC "-//W3C//DTD SVG 1.1//EN" "http://www.w3.org/Graphics/SVG/1.1/DTD/svg11.dtd">
<svg width="100%" height="100%" viewBox="0 0 167 214" version="1.1" xmlns="http://www.w3.org/2000/svg" xmlns:xlink="http://www.w3.org/1999/xlink" xml:space="preserve" xmlns:serif="http://www.serif.com/" style="fill-rule:evenodd;clip-rule:evenodd;stroke-linejoin:round;stroke-miterlimit:2;">
    <g transform="matrix(1,0,0,1,-44.8864,-21.256)">
        <g transform="matrix(1.13846,0.657292,-0.657292,1.13846,73.061,-108.285)">
            <path d="M158.774,93.746C158.774,93.116 158.263,92.605 157.633,92.605L97.429,92.605C96.799,92.605 96.288,93.116 96.288,93.746L96.288,139.165C96.288,139.796 96.799,140.307 97.429,140.307L157.633,140.307C158.263,140.307 158.774,139.796 158.774,139.165L158.774,93.746Z"/>
            <g transform="matrix(1,0,0,1.22547,0,37.6998)">
                <path d="M158.774,93.536C158.774,93.289 158.654,93.052 158.44,92.878C158.226,92.703 157.936,92.605 157.633,92.605C149.893,92.605 105.169,92.605 97.429,92.605C97.127,92.605 96.836,92.703 96.622,92.878C96.408,93.052 96.288,93.289 96.288,93.536C96.288,99.592 96.288,133.32 96.288,139.375C96.288,139.622 96.408,139.859 96.622,140.034C96.836,140.208 97.127,140.307 97.429,140.307C105.169,140.307 149.893,140.307 157.633,140.307C157.936,140.307 158.226,140.208 158.44,140.034C158.654,139.859 158.774,139.622 158.774,139.375C158.774,133.32 158.774,99.592 158.774,93.536Z"/>
            </g>
            <path d="M109.529,81.934C109.461,81.934 109.394,81.94 109.327,81.952C107.852,82.217 90.492,85.334 86.232,86.099C85.688,86.197 85.293,86.67 85.293,87.222C85.293,94.345 85.293,139.142 85.293,146.89C85.293,147.52 84.782,148.031 84.152,148.031C82.996,148.031 81.218,148.031 80.065,148.031C79.437,148.031 78.927,147.524 78.924,146.896C78.876,138.514 78.582,86.337 78.544,79.554C78.542,79.111 78.796,78.706 79.197,78.516C83.242,76.6 104.741,66.412 108.775,64.501C109.173,64.312 109.427,63.911 109.427,63.47C109.427,61.242 109.427,54.463 109.427,51.749C109.427,51.119 109.938,50.608 110.568,50.608C116.465,50.608 143.443,50.608 149.34,50.608C149.97,50.608 150.481,51.119 150.481,51.749C150.481,53.437 150.481,56.557 150.481,58.017C150.481,58.494 150.184,58.921 149.738,59.087C148.826,59.426 147.29,59.997 146.378,60.336C145.932,60.503 145.635,60.929 145.635,61.406C145.635,64.656 145.635,76.968 145.635,80.793C145.635,81.423 145.124,81.934 144.494,81.934C138.557,81.934 111.4,81.934 109.529,81.934Z"/>
        </g>
    </g>
</svg>
