<svg class="bg " width="100%" height="770" viewBox="0 0 1400 770" preserveAspectRatio="none" fill="none" xmlns="http://www.w3.org/2000/svg">
	<g>
		<path opacity="0.5" d="M-296.266 171.954C-175.815 30.6992 -104.657 -218.418 239.749 -190.207C584.155 -161.995 450.396 -239 820.937 -239C1593 -239 1488 -34 1470.42 528.328C1459.71 871.006 1041.69 710.735 737.141 760.887C432.594 811.04 28.0664 640.258 -84.8657 506.839C-197.798 373.419 -416.718 313.21 -296.266 171.954Z" fill="currentColor"></path>
		<path opacity="0.5" d="M1400 -95.0331H0.000244141V562.112C-40.1349 575.349 -55.6709 595.314 -28.0867 628.421C37.3806 706.995 183.359 707.898 404.772 709.268C457.27 709.593 514.008 709.944 574.92 711.362C637.105 712.811 694.947 716.28 751.551 719.675C915.098 729.483 1068.31 738.672 1286.11 696.713C1418.86 671.138 1428.25 652.626 1400 633.153V-95.0331Z" fill="currentColor"></path>
	</g>
</svg>
