<?xml version="1.0" encoding="UTF-8" standalone="no"?>
<!DOCTYPE svg PUBLIC "-//W3C//DTD SVG 1.1//EN" "http://www.w3.org/Graphics/SVG/1.1/DTD/svg11.dtd">
<svg width="100%" height="100%" viewBox="0 0 334 334" version="1.1" xmlns="http://www.w3.org/2000/svg" xmlns:xlink="http://www.w3.org/1999/xlink" xml:space="preserve" xmlns:serif="http://www.serif.com/" style="fill-rule:evenodd;clip-rule:evenodd;stroke-linejoin:round;stroke-miterlimit:2;">
    <g transform="matrix(1,0,0,1,-1257.4,-556.024)">
        <g transform="matrix(1,0,0,1,542.524,0)">
            <g transform="matrix(1,0,0,1,217.259,-89.386)">
                <path d="M831.423,692.257C831.423,666.401 810.432,645.41 784.576,645.41L544.459,645.41C518.604,645.41 497.612,666.401 497.612,692.257L497.612,932.374C497.612,958.23 518.604,979.221 544.459,979.221L784.576,979.221C810.432,979.221 831.423,958.23 831.423,932.374L831.423,692.257Z" style="fill:rgb(35,35,35);"/>
            </g>
            <g transform="matrix(1.11851,0,0,1.11851,662.41,149.359)">
                <path d="M278.618,503.29C278.876,503.29 279.121,503.178 279.291,502.984C279.46,502.79 279.538,502.533 279.504,502.277C278.881,497.701 277.888,493.241 276.554,488.931C268.18,461.87 246.401,440.675 218.991,433.121C218.603,433.015 218.333,432.662 218.333,432.259C218.333,429.563 218.333,419.648 218.333,416.297C218.333,416.025 218.456,415.768 218.669,415.598C218.881,415.428 219.159,415.364 219.424,415.425C256.18,423.878 285.284,452.464 294.481,488.931C295.593,493.343 296.415,497.871 296.923,502.492C296.972,502.946 297.355,503.289 297.812,503.289C300.518,503.29 309.244,503.29 311.328,503.29C311.611,503.29 311.877,503.423 312.046,503.651C313.534,505.656 320.815,515.464 323.571,519.176C323.772,519.448 323.803,519.809 323.652,520.111C323.5,520.413 323.191,520.603 322.853,520.603C313.366,520.603 268.937,520.603 263.981,520.603C263.698,520.603 263.432,520.469 263.263,520.242C261.775,518.237 254.494,508.428 251.738,504.716C251.537,504.445 251.506,504.084 251.657,503.782C251.809,503.48 252.118,503.29 252.456,503.29C257.92,503.29 274.358,503.29 278.618,503.29ZM96.347,521.43C96.312,520.964 95.924,520.603 95.456,520.603C92.582,520.603 83.125,520.603 80.949,520.603C80.667,520.603 80.401,520.47 80.232,520.243C78.741,518.24 71.443,508.43 68.68,504.717C68.478,504.446 68.447,504.084 68.598,503.782C68.75,503.48 69.059,503.29 69.397,503.29C78.886,503.29 123.283,503.29 128.234,503.29C128.517,503.29 128.783,503.423 128.951,503.65C130.442,505.653 137.741,515.463 140.503,519.176C140.705,519.447 140.737,519.809 140.585,520.111C140.433,520.413 140.124,520.603 139.786,520.603C134.445,520.603 118.666,520.603 114.577,520.603C114.325,520.603 114.085,520.709 113.916,520.895C113.747,521.081 113.663,521.329 113.686,521.58C114.123,526.178 114.933,530.668 116.086,535.019C123.399,562.616 144.505,584.624 171.564,593.203C171.936,593.32 172.189,593.665 172.189,594.055C172.19,596.72 172.19,606.747 172.19,610.169C172.19,610.446 172.062,610.707 171.843,610.876C171.624,611.046 171.339,611.104 171.071,611.034C134.698,601.443 106.348,572.002 98.332,535.019C97.372,530.591 96.703,526.054 96.347,521.43ZM186.642,431.758C186.642,431.5 186.531,431.255 186.338,431.086C186.144,430.916 185.887,430.838 185.631,430.871C181.022,431.489 176.53,432.482 172.19,433.821C146.12,441.859 125.483,462.335 117.221,488.306C117.103,488.678 116.759,488.93 116.369,488.93C113.705,488.931 103.675,488.931 100.251,488.931C99.974,488.931 99.713,488.803 99.544,488.583C99.374,488.364 99.316,488.079 99.386,487.811C108.721,452.529 136.738,424.809 172.19,415.898C176.631,414.782 181.19,413.961 185.843,413.457C186.297,413.409 186.642,413.025 186.642,412.568C186.642,409.664 186.642,399.782 186.642,397.553C186.642,397.271 186.776,397.005 187.002,396.836C188.999,395.35 198.749,388.095 202.449,385.342C202.721,385.141 203.082,385.109 203.384,385.261C203.686,385.412 203.877,385.722 203.877,386.06C203.877,399.024 203.877,478.695 203.877,488.037C203.877,488.531 203.477,488.931 202.983,488.931C198.203,488.931 175.756,488.931 172.438,488.931C172.177,488.931 171.93,489.045 171.76,489.242C170.823,490.331 167.681,493.985 166.459,495.406C166.175,495.736 166.17,496.224 166.449,496.559C167.663,498.024 170.819,501.832 171.759,502.966C171.929,503.171 172.181,503.29 172.448,503.29C177.656,503.29 229.62,503.29 235.002,503.29C235.285,503.29 235.551,503.423 235.72,503.651C237.768,506.409 250.922,524.13 253.379,527.44C253.614,527.756 253.614,528.189 253.38,528.505C250.877,531.886 237.243,550.302 235.156,553.121C234.987,553.349 234.721,553.483 234.438,553.483C231.04,553.483 209.451,553.483 204.771,553.483C204.534,553.483 204.307,553.577 204.139,553.745C203.971,553.912 203.877,554.14 203.877,554.377C203.877,559.96 203.877,589.991 203.877,595.813C203.877,596.065 203.983,596.305 204.169,596.474C204.355,596.644 204.604,596.727 204.855,596.704C209.467,596.26 213.97,595.441 218.333,594.277C246.929,586.649 269.504,564.202 277.315,535.679C277.42,535.29 277.773,535.02 278.177,535.02C280.874,535.019 290.785,535.019 294.133,535.019C294.405,535.019 294.662,535.143 294.831,535.355C295.001,535.567 295.065,535.845 295.005,536.11C286.352,573.977 256.335,603.746 218.333,612.038C213.891,613.008 209.341,613.683 204.703,614.044C204.237,614.08 203.877,614.468 203.877,614.936C203.877,617.624 203.877,626.032 203.877,628.073C203.877,628.356 203.743,628.623 203.516,628.791C201.517,630.275 191.768,637.512 188.069,640.258C187.798,640.459 187.436,640.491 187.134,640.339C186.832,640.187 186.642,639.878 186.642,639.54C186.642,626.461 186.642,545.344 186.642,535.913C186.642,535.42 187.042,535.019 187.536,535.019C192.479,535.019 216.36,535.019 219.813,535.019C220.077,535.019 220.328,534.903 220.498,534.7C221.423,533.599 224.492,529.945 225.677,528.535C225.952,528.208 225.957,527.732 225.69,527.4C224.514,525.936 221.428,522.094 220.498,520.937C220.329,520.726 220.072,520.603 219.801,520.603C214.546,520.603 162.63,520.603 157.255,520.603C156.972,520.603 156.706,520.47 156.537,520.243C154.49,517.491 141.339,499.817 138.879,496.51C138.644,496.194 138.643,495.761 138.878,495.445C141.382,492.062 155.014,473.648 157.101,470.829C157.27,470.602 157.536,470.467 157.82,470.467L185.748,470.467C186.242,470.467 186.642,470.067 186.642,469.573C186.642,464.305 186.642,437.347 186.642,431.758ZM218.333,471.361C218.333,471.124 218.427,470.897 218.595,470.729C218.762,470.562 218.99,470.467 219.227,470.467C223.814,470.467 244.761,470.467 251.604,470.467C251.967,470.467 252.293,470.686 252.431,471.021C252.569,471.356 252.491,471.741 252.234,471.996C248.155,476.045 237.258,486.859 235.431,488.671C235.264,488.838 235.038,488.931 234.802,488.931C232.714,488.931 222.352,488.931 219.227,488.931C218.99,488.931 218.762,488.837 218.595,488.669C218.427,488.501 218.333,488.274 218.333,488.037C218.333,484.91 218.333,474.488 218.333,471.361ZM156.685,535.281C156.852,535.114 157.08,535.019 157.317,535.019C159.269,535.019 168.387,535.019 171.296,535.019C171.533,535.019 171.76,535.114 171.928,535.281C172.096,535.449 172.19,535.676 172.19,535.913C172.19,539.04 172.19,549.462 172.19,552.589C172.19,552.826 172.096,553.053 171.928,553.221C171.76,553.389 171.533,553.483 171.296,553.483C166.866,553.483 147.224,553.483 140.641,553.483C140.28,553.483 139.954,553.265 139.815,552.931C139.677,552.597 139.753,552.212 140.009,551.957C144.054,547.912 154.864,537.101 156.685,535.281Z" style="fill:rgb(64,178,127);"/>
            </g>
        </g>
    </g>
</svg>
