<?xml version="1.0" encoding="UTF-8" standalone="no"?>
<!DOCTYPE svg PUBLIC "-//W3C//DTD SVG 1.1//EN" "http://www.w3.org/Graphics/SVG/1.1/DTD/svg11.dtd">
<svg width="100%" height="100%" viewBox="0 0 200 98" version="1.1" xmlns="http://www.w3.org/2000/svg" xmlns:xlink="http://www.w3.org/1999/xlink" xml:space="preserve" xmlns:serif="http://www.serif.com/" style="fill-rule:evenodd;clip-rule:evenodd;stroke-linejoin:round;stroke-miterlimit:2;">
    <g transform="matrix(1,0,0,1,-1071.1,-39.7165)">
        <g transform="matrix(1.15828,0,0,1.15828,95.9102,-513.653)">
            <g transform="matrix(0.248574,0,0,0.248574,879.284,382.768)">
                <path d="M275.233,535.1C275.247,535.05 275.26,535.001 275.274,534.951L275.404,535.122C275.346,535.122 275.289,535.114 275.233,535.1ZM297.246,535.991C297.245,535.992 297.245,535.992 297.245,535.993L296.717,535.338C288.272,574.297 257.594,605.011 218.653,613.508C214.947,614.317 211.165,614.924 207.321,615.319C206.221,615.429 205.382,616.356 205.382,617.463C205.381,620.28 205.381,626.664 205.381,628.855C205.381,629.122 205.255,629.374 205.041,629.533L186.485,643.307C186.229,643.498 185.887,643.527 185.602,643.384C185.317,643.24 185.138,642.949 185.138,642.63L185.138,534.351C185.138,533.896 185.499,533.523 185.953,533.508C191.926,533.514 214.094,533.515 218.47,533.515L219.223,533.515L219.726,533.281L223.064,529.307C223.726,528.519 223.738,527.373 223.094,526.57L220.156,522.913C219.747,522.404 219.129,522.108 218.475,522.108L156.474,522.108C156.207,522.108 155.956,521.981 155.797,521.767L136.983,496.483C136.761,496.184 136.761,495.776 136.982,495.477L156.358,469.305C156.517,469.09 156.769,468.963 157.037,468.963L182.982,468.963C183.553,468.963 184.102,468.736 184.506,468.332C184.91,467.927 185.138,467.379 185.138,466.807L185.138,434.982C185.138,434.347 184.857,433.744 184.372,433.334C183.886,432.924 183.244,432.75 182.618,432.857L182.615,432.858C179.211,433.453 175.879,434.257 172.633,435.258C146.828,443.215 126.444,463.582 118.462,489.376L118.318,489.841C118.208,490.194 117.882,490.435 117.512,490.435L98.25,490.435C97.99,490.435 97.744,490.315 97.585,490.11C97.425,489.905 97.368,489.637 97.432,489.385L97.639,488.563C106.807,452.213 135.462,423.578 171.823,414.439C175.559,413.501 179.376,412.767 183.261,412.253C184.334,412.113 185.137,411.198 185.137,410.115C185.138,406.989 185.138,399.223 185.138,396.772C185.138,396.506 185.264,396.254 185.478,396.095L204.034,382.289C204.29,382.098 204.631,382.068 204.916,382.211C205.201,382.355 205.381,382.647 205.381,382.966L205.381,489.591C205.381,490.057 205.004,490.435 204.538,490.435L173.335,490.435C172.943,490.435 172.571,490.606 172.315,490.903L168.603,495.22C168.218,495.668 168.212,496.329 168.589,496.784L172.331,501.299C172.587,501.607 172.966,501.785 173.366,501.785L235.784,501.785C236.051,501.785 236.302,501.912 236.462,502.126L255.274,527.469C255.496,527.767 255.496,528.175 255.275,528.474L235.899,554.645C235.74,554.86 235.488,554.987 235.221,554.987L207.531,554.987C206.355,554.987 205.396,555.93 205.375,557.106C205.375,557.11 205.375,557.114 205.375,557.118C205.381,563.493 205.381,588.597 205.381,593.554L205.381,594.398C205.381,594.398 206.037,595.063 206.037,595.063C206.062,595.063 206.087,595.062 206.111,595.059C210.152,594.601 214.104,593.848 217.945,592.824C246.242,585.275 268.535,562.95 276.038,534.634C276.039,534.632 276.039,534.63 276.04,534.628L276.168,534.143C276.266,533.773 276.601,533.515 276.984,533.515L296.066,533.515C296.321,533.515 296.563,533.631 296.723,533.829C296.883,534.028 296.945,534.288 296.891,534.538L296.719,535.328L297.246,535.991ZM115.981,523.42C115.647,523.42 115.367,523.169 115.329,522.837C115.781,526.864 116.525,530.804 117.54,534.634C124.776,561.942 145.767,583.677 172.633,591.961L173.099,592.105C173.453,592.214 173.694,592.541 173.694,592.911L173.694,612.168C173.694,612.428 173.574,612.674 173.369,612.834C173.164,612.993 172.897,613.05 172.644,612.987L171.823,612.78C134.362,603.365 105.081,573.257 96.861,535.338C96.061,531.645 95.46,527.879 95.071,524.05C94.962,522.947 94.034,522.108 92.926,522.108C89.867,522.108 82.539,522.108 80.168,522.108C79.902,522.108 79.65,521.981 79.491,521.767L65.626,503.133C65.436,502.877 65.406,502.535 65.549,502.25C65.692,501.965 65.984,501.785 66.303,501.785L126.058,501.785C126.325,501.785 126.576,501.911 126.735,502.125L140.6,520.76C140.791,521.016 140.821,521.357 140.677,521.642C140.534,521.928 140.242,522.108 139.923,522.108C133.613,522.108 119.268,522.108 116.462,522.108L115.986,522.108C115.114,522.107 115.981,523.42 115.981,523.42ZM275.386,501.785C276.023,501.785 276.626,501.504 277.036,501.017C277.446,500.53 277.62,499.887 277.511,499.26L277.51,499.258C276.914,495.889 276.112,492.59 275.117,489.376C266.828,462.59 245.164,441.657 217.945,434.396L217.455,434.265C217.085,434.166 216.828,433.832 216.828,433.45L216.828,414.361C216.828,414.106 216.944,413.864 217.143,413.704C217.342,413.544 217.603,413.482 217.852,413.537L218.654,413.711C256.481,421.966 286.513,451.185 295.939,488.563C296.874,492.27 297.607,496.057 298.124,499.912C298.265,500.983 299.179,501.785 300.261,501.785C303.129,501.785 309.852,501.785 312.11,501.785C312.377,501.785 312.628,501.912 312.788,502.126L326.62,520.761C326.81,521.017 326.84,521.358 326.697,521.643C326.553,521.928 326.262,522.108 325.943,522.108L265.675,522.108C265.408,522.108 265.157,521.981 264.998,521.767L251.165,503.132C250.975,502.876 250.945,502.535 251.089,502.25C251.232,501.965 251.524,501.785 251.842,501.785L275.386,501.785ZM255.377,468.963C255.719,468.963 256.027,469.169 256.158,469.486C256.288,469.802 256.214,470.165 255.972,470.406L236.036,490.19C235.878,490.347 235.665,490.435 235.442,490.435L217.672,490.435C217.206,490.435 216.828,490.057 216.828,489.591L216.828,469.807C216.828,469.583 216.917,469.369 217.076,469.21C217.234,469.052 217.449,468.963 217.672,468.963L255.377,468.963ZM172.85,533.515C173.074,533.515 173.289,533.604 173.447,533.762C173.605,533.921 173.694,534.135 173.694,534.359L173.694,554.143C173.694,554.367 173.605,554.582 173.447,554.74C173.289,554.898 173.074,554.987 172.85,554.987L136.889,554.987C136.547,554.987 136.24,554.782 136.109,554.466C135.978,554.151 136.051,553.788 136.292,553.547L156.076,533.762C156.234,533.604 156.449,533.515 156.673,533.515L172.85,533.515Z" style="fill:rgb(230,179,82);"/>
            </g>
            <g transform="matrix(0.885864,0,0,0.885864,202.485,-181.827)">
                <g transform="matrix(29.2377,0,0,29.2377,722.855,839.389)">
                    <path d="M0.795,-0.465L0.231,-0.465C0.203,-0.465 0.177,-0.458 0.153,-0.443C0.129,-0.428 0.114,-0.41 0.109,-0.388L0.054,-0.255C0.049,-0.234 0.054,-0.215 0.071,-0.2C0.088,-0.185 0.108,-0.177 0.131,-0.177L0.463,-0.177L0.452,-0.122L0.009,-0.122L-0.035,-0L0.519,-0C0.552,-0 0.581,-0.007 0.606,-0.022C0.63,-0.037 0.646,-0.055 0.651,-0.078L0.707,-0.21C0.712,-0.231 0.707,-0.25 0.69,-0.265C0.673,-0.28 0.653,-0.288 0.629,-0.288L0.286,-0.288L0.308,-0.354L0.751,-0.354L0.795,-0.465Z" style="fill:rgb(230,179,82);fill-rule:nonzero;"/>
                </g>
                <g transform="matrix(29.2377,0,0,29.2377,745.075,839.389)">
                    <path d="M0.487,-0.349L0.371,-0L0.155,-0L0.271,-0.349L0.055,-0.349L0.088,-0.465L0.719,-0.465L0.669,-0.349L0.487,-0.349Z" style="fill:rgb(230,179,82);fill-rule:nonzero;"/>
                </g>
                <g transform="matrix(29.2377,0,0,29.2377,764.489,839.389)">
                    <path d="M-0.035,-0L0.135,-0.465L0.689,-0.465C0.716,-0.465 0.737,-0.457 0.753,-0.442C0.769,-0.426 0.775,-0.407 0.77,-0.385L0.716,-0.25C0.697,-0.203 0.655,-0.179 0.591,-0.179L0.573,-0.179L0.698,-0L0.484,-0L0.35,-0.179L0.251,-0.179L0.189,-0L-0.035,-0ZM0.305,-0.349L0.278,-0.277L0.519,-0.277L0.546,-0.349L0.305,-0.349Z" style="fill:rgb(230,179,82);fill-rule:nonzero;"/>
                </g>
                <g transform="matrix(29.2377,0,0,29.2377,786.593,839.389)">
                    <path d="M-0.035,-0L0.106,-0.388C0.115,-0.412 0.131,-0.431 0.154,-0.445C0.177,-0.458 0.204,-0.465 0.236,-0.465L0.795,-0.465L0.63,-0L0.406,-0L0.448,-0.118L0.23,-0.118L0.189,-0L-0.035,-0ZM0.312,-0.347L0.271,-0.235L0.489,-0.235L0.53,-0.347L0.312,-0.347Z" style="fill:rgb(230,179,82);fill-rule:nonzero;"/>
                </g>
                <g transform="matrix(29.2377,0,0,29.2377,808.814,839.389)">
                    <path d="M0.487,-0.349L0.371,-0L0.155,-0L0.271,-0.349L0.055,-0.349L0.088,-0.465L0.719,-0.465L0.669,-0.349L0.487,-0.349Z" style="fill:rgb(230,179,82);fill-rule:nonzero;"/>
                </g>
                <g transform="matrix(29.2377,0,0,29.2377,828.227,839.389)">
                    <path d="M-0.035,-0L0.132,-0.465L0.69,-0.465C0.716,-0.465 0.737,-0.457 0.753,-0.442C0.769,-0.426 0.774,-0.408 0.767,-0.389L0.728,-0.281C0.715,-0.252 0.691,-0.236 0.656,-0.233C0.66,-0.233 0.664,-0.233 0.667,-0.232C0.67,-0.231 0.676,-0.23 0.683,-0.227C0.69,-0.224 0.694,-0.219 0.695,-0.212C0.696,-0.205 0.695,-0.196 0.694,-0.184L0.656,-0.076C0.647,-0.053 0.63,-0.035 0.606,-0.021C0.582,-0.007 0.555,-0 0.524,-0L-0.035,-0ZM0.302,-0.347L0.27,-0.274L0.513,-0.274L0.545,-0.347L0.302,-0.347ZM0.486,-0.191L0.246,-0.191L0.218,-0.118L0.458,-0.118L0.486,-0.191Z" style="fill:rgb(230,179,82);fill-rule:nonzero;"/>
                </g>
                <g transform="matrix(29.2377,0,0,29.2377,849.98,839.389)">
                    <path d="M0.774,-0.465L0.632,-0.077C0.624,-0.054 0.608,-0.035 0.585,-0.021C0.561,-0.007 0.534,-0 0.503,-0L-0.035,-0L0.106,-0.388C0.115,-0.412 0.131,-0.431 0.154,-0.445C0.177,-0.458 0.205,-0.465 0.236,-0.465L0.774,-0.465ZM0.228,-0.117L0.426,-0.117L0.511,-0.349L0.311,-0.349L0.228,-0.117Z" style="fill:rgb(230,179,82);fill-rule:nonzero;"/>
                </g>
                <g transform="matrix(29.2377,0,0,29.2377,871.587,839.389)">
                    <path d="M0.774,-0.465L0.632,-0.077C0.624,-0.054 0.608,-0.035 0.585,-0.021C0.561,-0.007 0.534,-0 0.503,-0L-0.035,-0L0.106,-0.388C0.115,-0.412 0.131,-0.431 0.154,-0.445C0.177,-0.458 0.205,-0.465 0.236,-0.465L0.774,-0.465ZM0.228,-0.117L0.426,-0.117L0.511,-0.349L0.311,-0.349L0.228,-0.117Z" style="fill:rgb(230,179,82);fill-rule:nonzero;"/>
                </g>
                <g transform="matrix(29.2377,0,0,29.2377,893.193,839.389)">
                    <path d="M0.18,-0L0.269,-0.215L0.394,-0L0.609,-0L0.466,-0.233L0.788,-0.465L0.555,-0.465L0.269,-0.25L0.358,-0.465L0.126,-0.465L-0.035,-0L0.18,-0Z" style="fill:rgb(230,179,82);fill-rule:nonzero;"/>
                </g>
            </g>
        </g>
    </g>
</svg>
